<svg version="1.1" id="Layer_1" xmlns="http://www.w3.org/2000/svg" xmlns:xlink="http://www.w3.org/1999/xlink" x="0px" y="0px"
	 width="100%" viewBox="0 0 656 380" enable-background="new 0 0 656 380" xml:space="preserve">
<path fill="#413585" opacity="1.000000" stroke="none" 
	d="
M172.694000,1.244459 
	C191.020889,1.000000 209.041794,1.000000 227.531342,1.000000 
	C233.383575,3.319837 239.621597,2.132453 244.844971,4.971943 
	C258.969055,12.649965 275.417389,14.161544 289.504791,21.977852 
	C297.513885,26.421637 306.646881,25.522385 315.333679,26.651913 
	C324.595581,27.856226 333.929413,27.573465 343.240570,27.838326 
	C349.061340,28.003904 354.541626,26.842558 359.810242,24.839094 
	C386.271301,14.776869 413.882904,9.751667 441.726105,5.599582 
	C452.281433,4.025525 462.920654,3.429389 473.526123,3.153020 
	C485.871307,2.831319 498.034088,5.332682 510.031952,8.102349 
	C525.105896,11.582115 540.290955,14.615150 555.136719,19.060343 
	C585.034180,28.012459 603.581604,48.161774 613.062378,77.382591 
	C616.167236,86.952385 618.171265,96.806793 618.058167,106.784821 
	C617.889587,121.657394 615.852844,136.362946 609.080078,149.913895 
	C604.844727,158.387878 601.121521,167.118256 595.894958,175.106552 
	C589.890869,184.283188 580.965637,190.715088 574.087341,199.049622 
	C573.254761,200.058502 572.352966,201.071548 571.398926,201.975540 
	C568.641785,204.588211 569.049133,206.632568 571.989441,208.868591 
	C582.187927,216.624359 590.100464,226.342682 596.508301,237.417465 
	C601.108582,245.368103 603.334839,253.989059 604.671570,262.917297 
	C606.789612,277.064514 607.135498,291.287445 601.641113,304.700897 
	C591.421326,329.650726 575.804932,349.393158 548.819763,358.272369 
	C537.320984,362.055969 525.645264,365.638824 514.759399,371.171204 
	C512.814880,372.159454 510.734863,372.792267 508.121826,372.039368 
	C503.719727,367.020050 500.880707,361.339203 496.864502,356.426270 
	C489.325439,347.203949 480.072021,340.357880 469.380829,335.359467 
	C449.469574,326.050354 429.755829,316.334015 410.046509,306.611145 
	C402.877106,303.074341 395.491974,299.974518 388.438232,296.237885 
	C379.224304,291.356934 374.109650,283.586151 373.776306,272.975403 
	C373.661255,269.312653 373.808990,265.644318 373.721954,261.981293 
	C373.590210,256.436249 373.962738,251.205460 377.273743,246.257507 
	C379.960571,242.242355 380.701721,237.325409 380.828979,232.388092 
	C380.970001,226.917648 381.850922,222.041718 388.020386,219.449310 
	C392.391113,217.612747 393.765015,212.674133 395.377441,208.515991 
	C398.334778,200.889755 400.183228,192.925964 401.459259,184.856339 
	C402.343536,179.264191 400.929291,177.141190 395.706299,175.868942 
	C391.621552,174.873947 390.989990,172.193207 391.753265,168.638153 
	C393.572418,160.165253 394.835846,151.676147 394.821045,142.930679 
	C394.788116,123.450867 387.191772,108.293488 369.927795,98.866211 
	C344.533569,84.999321 318.471588,82.645882 292.091034,96.164757 
	C277.663330,103.558327 266.901428,114.380257 263.891144,130.923752 
	C261.977570,141.439987 262.458221,152.112137 264.872040,162.614868 
	C265.393890,164.885376 266.007324,167.133316 266.393860,169.438812 
	C266.997406,173.038467 265.741211,175.475388 262.003967,175.845840 
	C257.678833,176.274582 256.155273,178.968201 256.419678,182.665176 
	C257.274109,194.612137 260.661011,205.858002 266.539978,216.317764 
	C267.195251,217.483627 268.117676,218.746872 269.319153,219.118622 
	C275.925171,221.162659 276.643127,226.670624 277.048401,232.197021 
	C277.520721,238.637726 278.947113,244.686829 282.712463,250.041565 
	C283.095947,250.586929 283.601959,251.169678 283.621552,251.801987 
	C283.989105,263.655792 286.829346,275.798737 280.054962,286.886017 
	C277.098663,291.724457 272.521149,294.867096 267.527832,297.258759 
	C245.602737,307.760345 223.637665,318.183380 201.966904,329.200012 
	C192.650009,333.936432 182.671204,337.316986 174.214447,343.870636 
	C166.744324,349.659698 160.861740,356.731354 154.928589,364.396729 
	C152.783630,366.526855 150.347626,366.191376 148.061157,366.205902 
	C135.086975,366.288452 122.615303,363.319733 110.468338,359.193024 
	C103.400604,356.791931 95.950043,355.846954 89.135201,352.339722 
	C79.043404,347.145905 71.751083,338.892822 64.418243,330.817474 
	C57.414043,323.103973 50.982533,314.869507 47.406666,304.635986 
	C42.757515,291.330963 41.087418,277.936615 42.879181,263.963409 
	C44.382301,252.241226 45.536648,240.545563 50.749554,229.629791 
	C58.261642,213.899582 68.308441,200.623062 84.336060,192.731674 
	C89.854965,190.014389 95.023430,186.649353 100.797806,184.378113 
	C105.373482,182.578369 105.468597,181.840881 102.763794,177.900391 
	C99.467697,173.098450 95.905075,168.464264 93.128929,163.334000 
	C82.842712,144.325287 77.675781,124.001793 78.930649,102.395744 
	C80.103104,82.208801 87.576538,64.096466 100.179955,48.445328 
	C108.706696,37.856667 117.570496,27.410864 128.352783,18.897655 
	C132.566925,15.570354 137.432602,13.372343 142.309875,11.238461 
	C152.010590,6.994243 161.381592,1.711906 172.694000,1.244459 
z"/>

<path fill="#2C2359" opacity="1.000000" stroke="none" 
	d="
M508.058350,370.387207 
	C499.472260,373.847107 490.515869,375.544342 481.424438,375.924591 
	C460.399536,376.804016 439.853943,373.860107 419.468048,368.506653 
	C405.561401,364.854675 391.129517,363.774963 376.721405,362.877106 
	C364.326355,362.104675 352.299469,358.580780 340.061310,356.560181 
	C334.162476,355.586243 328.491852,354.100830 322.880188,351.958649 
	C315.261871,349.050476 307.294647,347.949585 299.018494,347.862701 
	C282.884796,347.693420 267.016144,349.240326 251.043472,351.539154 
	C235.748413,353.740479 220.983521,358.126007 205.850800,360.622528 
	C189.025970,363.398193 171.962967,365.092041 154.331696,363.770630 
	C157.879730,354.543610 165.097031,348.228119 172.646500,342.168365 
	C179.097702,336.990082 186.646347,333.921021 194.014923,330.398834 
	C218.513458,318.688416 242.929153,306.801483 267.276306,294.779144 
	C276.850586,290.051453 282.306152,282.387451 282.044525,271.283539 
	C281.969971,268.118988 281.902863,264.944519 282.063385,261.786346 
	C282.330658,256.527832 281.548492,251.863007 278.408325,247.202438 
	C274.502563,241.405624 274.911804,234.141220 274.121979,227.396484 
	C273.843872,225.021454 273.519592,223.373413 270.823120,222.647644 
	C267.432953,221.735138 265.204803,219.140411 263.592896,216.127747 
	C258.421722,206.462646 255.503571,196.045761 254.122086,185.255554 
	C253.086990,177.170883 254.551331,175.610596 263.149323,173.676804 
	C265.219177,173.211273 264.737213,171.881073 264.388763,170.610184 
	C262.268585,162.877014 261.128845,155.037674 260.618011,147.004654 
	C259.397491,127.812012 266.249634,109.813255 283.883362,98.344620 
	C297.974762,89.179832 313.021912,84.548706 329.597473,85.104134 
	C347.469116,85.703003 364.127228,90.586479 378.457336,101.693230 
	C390.184296,110.782364 396.170563,123.060921 397.011658,137.811630 
	C397.612579,148.349884 396.765137,158.783386 393.982727,169.004333 
	C393.189178,171.919220 392.433105,173.979996 397.229156,173.501114 
	C401.600037,173.064682 404.036957,176.639694 403.826233,180.668228 
	C403.131378,193.952255 399.980469,206.648193 393.050720,218.170975 
	C392.226929,219.540787 390.846344,221.170547 389.447784,221.496964 
	C383.362610,222.917175 383.234009,227.721024 383.131958,232.282669 
	C382.977966,239.164398 381.187927,245.406418 377.299286,251.067581 
	C376.925201,251.612167 376.376160,252.221893 376.369995,252.806259 
	C376.265320,262.712952 374.066284,272.801178 378.228943,282.383911 
	C381.010193,288.786621 386.113525,292.762848 392.409210,295.764954 
	C415.865692,306.950195 439.095795,318.612518 462.604065,329.685608 
	C472.437897,334.317627 482.295288,338.741119 490.331299,346.244385 
	C497.657562,353.084930 504.385559,360.423279 508.058350,370.387207 
z"/>
<path fill="#423686" opacity="1.000000" stroke="none" 
	d="
M458.793640,182.107819 
	C458.019318,181.649658 457.569000,181.307938 457.062561,180.748169 
	C456.541229,179.612686 456.494751,178.613815 456.219574,177.314484 
	C455.999298,177.012405 455.998474,177.001144 455.993286,176.998688 
	C454.686249,175.418655 455.021332,173.521149 455.014801,171.717972 
	C454.983307,163.052444 454.954712,154.386444 455.014435,145.721207 
	C455.075439,136.874908 459.804535,132.047485 468.582886,132.021561 
	C489.580200,131.959549 510.578003,131.948868 531.575256,132.026199 
	C540.612122,132.059494 545.977600,137.643997 545.995056,146.752502 
	C546.011414,155.251434 546.105469,163.752060 545.962708,172.248932 
	C545.840576,179.514359 540.532471,184.919693 533.293945,184.956192 
	C511.463776,185.066315 489.632721,185.006500 467.802032,184.996704 
	C466.451996,184.996094 465.159027,184.701065 463.426086,184.225342 
	C462.998810,184.007996 463.000000,184.000381 462.996826,184.002899 
	C462.576691,183.562256 461.996155,183.508698 461.231262,183.185257 
	C461.006836,183.010757 460.998688,183.001907 460.992920,183.000381 
	C460.480713,182.458878 459.729462,182.509766 458.793640,182.107819 
z"/>
<path fill="#5746B2" opacity="1.000000" stroke="none" 
	d="
M205.543808,109.193741 
	C207.590057,129.246460 187.964676,148.950485 164.254456,145.683105 
	C136.800186,141.899796 122.862633,113.997032 136.200760,89.750450 
	C142.727966,77.885017 153.069061,71.264671 167.380798,70.918304 
	C169.911011,72.226616 169.453506,74.375725 169.472397,76.295082 
	C169.547363,83.915787 169.628601,91.540756 169.457855,99.157295 
	C169.356964,103.657761 171.358292,105.778267 175.624008,106.589317 
	C183.123901,108.015282 190.782822,107.242783 198.291489,108.467194 
	C200.555313,108.836349 202.924164,108.127144 205.543808,109.193741 
z"/>
<path fill="#5746B2" opacity="1.000000" stroke="none" 
	d="
M558.294250,285.683411 
	C525.618774,286.028503 493.327606,286.064087 461.036530,286.029236 
	C459.031921,286.027069 456.058899,287.009186 455.457123,284.194855 
	C454.672424,280.525085 454.096558,276.474976 455.945892,273.007324 
	C456.941315,271.140747 459.629639,272.009369 461.562439,272.006104 
	C493.354218,271.952850 525.146118,271.949951 557.397705,271.931763 
	C560.715698,276.246460 559.638367,280.805786 558.294250,285.683411 
z"/>
<path fill="#5746B2" opacity="1.000000" stroke="none" 
	d="
M537.322205,228.707123 
	C511.636292,229.047623 486.328705,229.077759 461.021240,229.029251 
	C459.015778,229.025406 456.040588,230.004028 455.450775,227.179489 
	C454.683899,223.507095 454.133087,219.487946 455.943146,215.981445 
	C456.838684,214.246613 459.303986,215.002136 461.079163,214.998840 
	C486.053711,214.952408 511.028320,214.950592 536.467285,214.935776 
	C539.649292,219.273834 538.649170,223.826736 537.322205,228.707123 
z"/>
<path fill="#28D2BC" opacity="1.000000" stroke="none" 
	d="
M169.824127,71.426834 
	C189.073746,70.711967 204.410248,85.565109 206.510468,106.650177 
	C205.402298,108.698120 203.662399,108.488297 202.020279,108.491302 
	C192.389999,108.508942 182.759598,108.479149 173.129425,108.515060 
	C170.990585,108.523033 169.005310,108.517525 169.049835,105.582184 
	C169.220825,94.312599 168.452744,83.031212 169.824127,71.426834 
z"/>
<path fill="#27D2BC" opacity="1.000000" stroke="none" 
	d="
M502.196106,243.488678 
	C524.095886,242.990616 545.707092,242.968430 567.316162,242.744370 
	C571.010681,242.706070 572.274841,243.870697 572.172485,247.594086 
	C571.861938,258.887512 573.332764,257.116333 562.682373,257.197632 
	C543.067017,257.347321 523.450623,257.363983 503.359131,257.432800 
	C500.202515,253.088516 501.734131,248.443420 502.196106,243.488678 
z"/>
<path fill="#5645B0" opacity="1.000000" stroke="none" 
	d="
M500.470276,256.444916 
	C498.582214,258.131653 496.698730,257.926208 494.881317,257.929474 
	C483.551392,257.949829 472.219391,257.827820 460.892609,258.019745 
	C456.652802,258.091583 454.540741,256.699768 455.032532,252.279633 
	C455.069153,251.950531 455.037598,251.613678 455.035217,251.280457 
	C454.976562,243.052750 454.976440,243.031830 463.064789,243.018906 
	C475.061127,242.999741 487.057526,243.013718 499.521912,243.016586 
	C502.740265,247.225174 501.489746,251.687210 500.470276,256.444916 
z"/>
<path fill="#6BD6CC" opacity="1.000000" stroke="none" 
	d="
M147.391876,231.522720 
	C143.516556,231.987106 142.301895,230.591888 142.302460,227.071899 
	C142.303070,223.254257 144.432007,223.303696 147.135071,223.310669 
	C165.092819,223.357071 183.050735,223.335236 201.008606,223.334229 
	C203.385330,223.334091 205.803955,223.328583 206.854263,226.062073 
	C207.957581,228.933533 205.778381,231.404465 201.716293,231.457474 
	C191.741364,231.587677 181.763794,231.517822 171.787277,231.523087 
	C163.806000,231.527313 155.824738,231.523666 147.391876,231.522720 
z"/>
<path fill="#6CDACE" opacity="1.000000" stroke="none" 
	d="
M97.007668,250.909149 
	C113.664932,250.909332 129.823822,250.951218 145.982086,250.870636 
	C148.833557,250.856430 150.621063,251.088028 150.586609,254.768387 
	C150.553223,258.334564 148.963303,258.802124 145.994080,258.788971 
	C126.337517,258.701904 106.680382,258.739532 87.023438,258.747375 
	C84.006577,258.748566 80.908508,258.488739 81.060425,254.531921 
	C81.201485,250.858139 84.244621,250.878799 87.013863,250.902969 
	C90.178719,250.930588 93.343987,250.909241 97.007668,250.909149 
z"/>
<path fill="#7063B8" opacity="1.000000" stroke="none" 
	d="
M463.236145,184.311066 
	C485.285309,183.969147 507.571838,183.927551 529.858337,183.892624 
	C540.774658,183.875519 544.872375,179.771912 544.900574,168.821472 
	C544.919922,161.334702 545.032776,153.847122 544.954651,146.361450 
	C544.871216,138.370010 540.366211,133.336014 532.407410,133.243408 
	C510.947662,132.993668 489.482971,132.982697 468.021973,133.130646 
	C460.444000,133.182907 456.184998,137.823746 456.083008,145.620575 
	C455.950317,155.767227 456.088806,165.917419 456.049347,176.531158 
	C453.803558,176.395370 453.990143,174.548676 453.983337,172.934982 
	C453.942566,163.272629 453.822845,153.607193 454.012848,143.948364 
	C454.160065,136.463882 459.575500,131.081024 467.149078,131.044571 
	C489.138855,130.938766 511.130432,130.951904 533.119629,131.124969 
	C541.288757,131.189255 546.919922,137.011322 547.003601,145.067596 
	C547.098755,154.228867 547.066345,163.393524 546.934204,172.554474 
	C546.823730,180.221451 541.919434,185.741684 534.200378,185.822906 
	C512.046570,186.056000 489.888306,185.862625 467.731781,185.825790 
	C466.210876,185.823257 464.751892,185.513062 463.236145,184.311066 
z"/>
<path fill="#29D3BC" opacity="1.000000" stroke="none" 
	d="
M539.024536,214.931458 
	C548.551636,214.644653 557.663208,214.805130 566.767883,214.623016 
	C570.491333,214.548538 572.055908,215.490417 572.016418,219.576263 
	C571.925476,228.997223 572.130615,228.976242 562.671692,229.006607 
	C555.219849,229.030518 547.768311,229.120087 539.875244,229.188538 
	C536.757080,224.687057 538.056091,219.941757 539.024536,214.931458 
z"/>
<path fill="#6CDACE" opacity="1.000000" stroke="none" 
	d="
M190.992126,250.909149 
	C195.151657,250.912811 198.812927,250.927383 202.474121,250.916351 
	C204.939987,250.908905 206.845291,251.804062 206.998947,254.476013 
	C207.168060,257.416656 205.233490,258.679688 202.562241,258.690674 
	C189.082504,258.746094 175.601990,258.665375 162.122864,258.772736 
	C158.840469,258.798859 158.968918,256.877594 158.838791,254.557861 
	C158.679886,251.724243 159.711517,250.815674 162.535934,250.858658 
	C171.853317,251.000519 181.174255,250.910294 190.992126,250.909149 
z"/>
<path fill="#5645B0" opacity="1.000000" stroke="none" 
	d="
M161.375122,284.534790 
	C160.209473,279.646820 161.750992,277.825806 166.589966,277.942902 
	C177.873001,278.215912 189.167099,278.024780 200.456726,278.037201 
	C203.360382,278.040405 206.661697,278.050018 206.727448,281.945251 
	C206.793289,285.845245 203.562866,285.998840 200.609360,285.999237 
	C189.153717,286.000824 177.698029,286.014709 166.242462,285.985657 
	C164.624557,285.981567 162.878998,286.325897 161.375122,284.534790 
z"/>
<path fill="#5645B0" opacity="1.000000" stroke="none" 
	d="
M176.068573,237.826874 
	C177.510880,244.368561 177.086075,244.965012 171.160172,244.984375 
	C161.839478,245.014832 152.518616,244.988403 143.197815,244.989365 
	C140.385147,244.989655 137.420517,244.703735 137.288757,241.172821 
	C137.157028,237.642792 139.994522,236.966980 142.876251,237.033920 
	C153.835678,237.288483 164.813095,236.366257 176.068573,237.826874 
z"/>
<path fill="#2DB0B0" opacity="1.000000" stroke="none" 
	d="
M532.999756,90.368423 
	C540.460083,90.369011 547.420471,90.369011 554.380920,90.369011 
	C554.357117,90.821884 554.333374,91.274757 554.309570,91.727631 
	C550.590088,93.369118 459.568665,93.427315 455.446259,91.790840 
	C455.437531,91.316505 455.428772,90.842163 455.420044,90.367828 
	C481.113281,90.367828 506.806549,90.367828 532.999756,90.368423 
z"/>
<path fill="#6BD3CB" opacity="1.000000" stroke="none" 
	d="
M128.000305,223.324890 
	C131.149582,223.325546 133.818451,223.484238 136.460541,223.285965 
	C139.691910,223.043488 140.853592,224.257141 140.821976,227.543854 
	C140.792679,230.588272 139.753754,231.650391 136.750214,231.576889 
	C130.443588,231.422546 124.130737,231.525330 117.820450,231.515030 
	C115.061996,231.510529 112.541122,230.675369 112.517235,227.553925 
	C112.491547,224.195740 115.006699,223.250534 118.042816,223.315567 
	C121.196503,223.383118 124.352844,223.326828 128.000305,223.324890 
z"/>
<path fill="#29C6B7" opacity="1.000000" stroke="none" 
	d="
M514.000000,82.866058 
	C494.238220,82.865982 474.976440,82.865982 455.714661,82.865982 
	C455.722778,82.326248 455.730865,81.786522 455.738983,81.246788 
	C496.172852,81.246788 536.606750,81.246788 577.040588,81.246788 
	C577.051880,81.786575 577.063171,82.326355 577.074524,82.866142 
	C556.216309,82.866142 535.358154,82.866142 514.000000,82.866058 
z"/>
<path fill="#29CCB9" opacity="1.000000" stroke="none" 
	d="
M464.090149,113.063263 
	C460.973328,112.887444 458.292084,113.472893 455.630585,112.604156 
	C458.322510,110.666191 572.406616,110.290283 577.018616,113.063232 
	C539.537598,113.063232 502.056549,113.063232 464.090149,113.063263 
z"/>
<path fill="#5645B0" opacity="1.000000" stroke="none" 
	d="
M181.490067,244.874023 
	C178.015701,243.578461 178.833740,241.003891 179.274536,238.870316 
	C179.704895,236.787231 181.769348,237.040970 183.394760,237.032364 
	C189.355057,237.000793 195.315704,237.007156 201.276093,237.031158 
	C204.162155,237.042786 206.897385,237.716660 206.747803,241.247955 
	C206.612518,244.441360 203.978561,244.982086 201.300415,244.977936 
	C194.843536,244.967896 188.386673,244.949936 181.490067,244.874023 
z"/>
<path fill="#2EAAAE" opacity="1.000000" stroke="none" 
	d="
M480.998596,70.176880 
	C495.668823,70.379402 509.863403,69.733467 524.011169,70.697517 
	C524.005066,71.196541 523.998962,71.695557 523.992798,72.194580 
	C501.171356,72.194580 478.349915,72.194580 455.528473,72.194580 
	C455.491150,71.687195 455.453796,71.179810 455.416443,70.672424 
	C459.325867,69.416199 463.506134,70.227516 467.539612,70.101494 
	C471.854340,69.966675 476.178467,70.134712 480.998596,70.176880 
z"/>
<path fill="#27D2BC" opacity="1.000000" stroke="none" 
	d="
M559.821411,271.912231 
	C560.651794,271.569580 561.145691,271.546326 561.639526,271.548950 
	C573.797302,271.613586 571.596130,270.067871 571.979309,281.565247 
	C572.094055,285.007233 570.953186,286.402313 567.473877,286.042389 
	C565.355774,285.823303 563.196716,286.000732 560.603943,285.997375 
	C557.942017,281.507416 559.062439,276.858673 559.821411,271.912231 
z"/>
<path fill="#7063B8" opacity="1.000000" stroke="none" 
	d="
M139.095566,163.840424 
	C135.956711,163.449753 133.022888,164.748337 129.392105,161.845612 
	C148.816315,161.845612 166.967331,161.845612 185.118362,161.845612 
	C185.132797,162.510666 185.147247,163.175720 185.161697,163.840775 
	C169.967316,163.840775 154.772949,163.840775 139.095566,163.840424 
z"/>
<path fill="#6C5FB3" opacity="1.000000" stroke="none" 
	d="
M153.000076,186.961548 
	C145.298950,186.961029 138.097824,186.961029 129.663467,186.961029 
	C133.746567,183.544586 180.673248,183.257568 185.168518,185.566696 
	C185.188309,186.031815 185.208115,186.496948 185.227905,186.962067 
	C174.651962,186.962067 164.076004,186.962067 153.000076,186.961548 
z"/>
<path fill="#5645B0" opacity="1.000000" stroke="none" 
	d="
M139.644302,285.954346 
	C136.684433,285.527405 135.234619,284.018524 135.567932,281.488525 
	C135.905472,278.926392 137.855392,278.031586 140.298996,278.042786 
	C143.791489,278.058807 147.286652,278.121033 150.775940,278.012085 
	C153.718384,277.920197 154.976624,279.115906 154.967484,282.130035 
	C154.957825,285.313599 153.309860,286.094849 150.547256,286.019653 
	C147.057098,285.924652 143.562668,285.987305 139.644302,285.954346 
z"/>
<path fill="#6BD6CC" opacity="1.000000" stroke="none" 
	d="
M198.876755,264.477112 
	C200.486435,264.490051 201.653488,264.471130 202.817505,264.521698 
	C205.324219,264.630524 207.056015,265.809326 207.062439,268.435822 
	C207.068802,271.034180 205.288361,272.373932 202.880371,272.527771 
	C199.728439,272.729126 196.555176,272.567596 193.393967,272.660187 
	C190.270325,272.751678 190.549301,270.574341 190.530609,268.563202 
	C190.511536,266.510223 190.371826,264.390869 193.437134,264.499908 
	C195.099960,264.559052 196.767395,264.488678 198.876755,264.477112 
z"/>
<path fill="#C8E8EA" opacity="1.000000" stroke="none" 
	d="
M169.997955,70.836647 
	C170.174454,81.849373 170.304581,92.619858 170.099640,103.383965 
	C170.035645,106.744293 171.216675,107.700653 174.372086,107.626038 
	C184.803543,107.379417 195.239319,107.316208 206.100006,107.112839 
	C207.078949,107.781525 207.424042,108.515953 206.193726,109.348267 
	C195.098312,109.467339 184.289917,109.307495 173.489960,109.540405 
	C169.461594,109.627274 167.982544,108.564529 168.072342,104.287758 
	C168.299225,93.483986 168.023026,82.669647 167.878983,71.387665 
	C168.386154,70.221657 169.026398,69.923225 169.997955,70.836647 
z"/>
<path fill="#2BB9B3" opacity="1.000000" stroke="none" 
	d="
M506.997742,103.039871 
	C489.570526,103.039902 472.642914,103.039902 455.715332,103.039902 
	C455.717163,102.557426 455.718994,102.074959 455.720825,101.592484 
	C478.248535,101.592484 500.776215,101.592484 523.303894,101.592484 
	C520.877869,103.689987 518.141357,103.103363 515.494324,103.111343 
	C512.828735,103.119385 510.163025,103.066200 506.997742,103.039871 
z"/>
<path fill="#29CCB9" opacity="1.000000" stroke="none" 
	d="
M203.101776,172.232697 
	C199.890549,174.303177 197.111740,174.155472 194.718781,171.588501 
	C192.998764,169.743408 192.498215,167.540527 193.548447,165.125076 
	C194.981247,161.829727 198.745255,160.383896 201.867874,161.930206 
	C205.684143,163.820023 206.240295,167.526093 203.101776,172.232697 
z"/>
<path fill="#5645B0" opacity="1.000000" stroke="none" 
	d="
M203.739380,186.473755 
	C205.430496,189.289230 205.660461,191.963440 203.887802,194.260284 
	C202.004303,196.700714 199.330673,197.732101 196.383408,196.061203 
	C193.152817,194.229691 192.278336,191.309525 193.658676,187.954224 
	C194.879379,184.986969 197.281250,183.641632 200.493683,184.468369 
	C201.565613,184.744247 202.489960,185.593643 203.739380,186.473755 
z"/>
<path fill="#7063B8" opacity="1.000000" stroke="none" 
	d="
M170.813080,195.068207 
	C157.262634,195.067429 144.191391,195.067429 131.120132,195.067429 
	C131.122543,194.591736 131.124954,194.116028 131.127365,193.640335 
	C149.091461,193.640335 167.055557,193.640335 185.348770,193.640335 
	C183.286072,195.548462 183.286072,195.548462 170.813080,195.068207 
z"/>
<path fill="#7668BE" opacity="1.000000" stroke="none" 
	d="
M162.999954,169.997589 
	C170.637909,169.997589 177.775879,169.997589 184.913864,169.997589 
	C184.898483,170.511642 184.883102,171.025711 184.867722,171.539764 
	C166.957382,171.539764 149.047058,171.539764 131.136719,171.539764 
	C131.127548,171.025711 131.118378,170.511658 131.109207,169.997604 
	C141.572800,169.997604 152.036377,169.997604 162.999954,169.997589 
z"/>
<path fill="#2BB9B3" opacity="1.000000" stroke="none" 
	d="
M239.268021,273.808167 
	C244.928574,273.810120 250.120422,273.810120 255.312271,273.810120 
	C255.324005,274.299896 255.335754,274.789673 255.347488,275.279419 
	C252.375885,276.682281 249.083679,275.758240 245.960464,275.931458 
	C242.975739,276.096985 239.965820,275.820618 236.982712,276.000000 
	C233.756714,276.194000 232.486618,274.879089 232.549423,271.672028 
	C232.671143,265.456268 232.584991,259.236420 233.181824,253.007095 
	C235.866287,255.283463 234.664658,258.139954 234.848312,260.706482 
	C235.073318,263.850891 235.022324,267.028839 234.874634,270.182159 
	C234.737595,273.108154 236.151932,274.049194 239.268021,273.808167 
z"/>
<path fill="#2ABFB1" opacity="1.000000" stroke="none" 
	d="
M232.591949,89.194763 
	C232.655304,81.794632 232.655304,81.792732 239.723312,81.788361 
	C244.937531,81.785141 250.151749,81.787720 255.387894,82.581696 
	C251.044617,84.398430 246.509750,83.749619 242.069382,83.828773 
	C234.887772,83.956779 234.969086,83.868401 234.851242,91.149734 
	C234.780365,95.528625 235.424194,99.971611 234.376862,104.293167 
	C233.781601,104.319260 233.186340,104.345352 232.591080,104.371445 
	C232.591080,99.469521 232.591080,94.567604 232.591949,89.194763 
z"/>
<path fill="#29C6B7" opacity="1.000000" stroke="none" 
	d="
M411.152161,273.855988 
	C414.126617,273.855927 416.662476,273.577362 419.113678,273.914429 
	C424.133392,274.604645 425.436554,272.429749 425.060974,267.748138 
	C424.671600,262.895111 424.974213,257.986542 425.635193,253.092865 
	C427.848206,256.874084 426.909668,260.942505 426.964691,264.852905 
	C427.120270,275.910034 427.018341,275.985779 416.031433,275.870911 
	C412.225067,275.831146 408.296509,276.576965 403.597687,274.935303 
	C406.500427,273.415863 408.646637,274.028778 411.152161,273.855988 
z"/>
<path fill="#29C6B7" opacity="1.000000" stroke="none" 
	d="
M417.959167,81.811440 
	C428.311462,81.939743 426.982910,80.700554 426.971497,90.245575 
	C426.965942,94.910164 427.625458,99.655525 425.947357,104.267403 
	C424.494659,99.351791 424.834900,94.293449 425.084015,89.345047 
	C425.304474,84.965607 424.019592,83.503258 419.541687,83.711472 
	C414.565887,83.942833 409.467163,84.428261 404.526215,82.782440 
	C408.774750,81.290268 413.159424,82.042282 417.959167,81.811440 
z"/>
<path fill="#6BD3CB" opacity="1.000000" stroke="none" 
	d="
M188.208740,265.133545 
	C188.122482,268.031860 191.166000,272.145294 185.682190,272.584351 
	C182.929840,272.804718 180.631668,271.504944 180.677933,268.326508 
	C180.720810,265.382324 182.822815,264.425415 185.479446,264.503479 
	C186.295441,264.527435 187.105820,264.742889 188.208740,265.133545 
z"/>
<path fill="#A8CDDB" opacity="1.000000" stroke="none" 
	d="
M500.345764,256.976685 
	C500.087128,252.499298 500.062805,248.220169 500.014221,243.480316 
	C500.658600,242.471008 501.277069,241.625153 502.347931,242.862885 
	C502.606476,247.531860 502.727509,251.982758 502.866089,256.931580 
	C502.017456,258.234589 501.196594,258.629150 500.345764,256.976685 
z"/>
<path fill="#6BD3CB" opacity="1.000000" stroke="none" 
	d="
M156.891724,252.319778 
	C156.972031,253.245346 157.069000,253.758194 156.983002,254.238251 
	C156.715363,255.732422 157.857193,257.744202 155.632568,258.536194 
	C154.512192,258.935028 153.029327,258.923706 152.568329,257.686707 
	C151.872299,255.819046 151.648621,253.559570 152.646530,251.885986 
	C153.597946,250.290329 155.419876,250.418732 156.891724,252.319778 
z"/>
<path fill="#D1E9EA" opacity="1.000000" stroke="none" 
	d="
M559.880737,271.350159 
	C560.124573,276.077820 560.091248,280.574829 560.104858,285.533264 
	C559.693237,286.844910 559.057861,287.028259 558.072266,286.255859 
	C557.938965,281.626495 557.968018,277.244141 557.927246,272.394775 
	C558.210022,271.162720 558.821899,270.957703 559.880737,271.350159 
z"/>
<path fill="#BFD2E4" opacity="1.000000" stroke="none" 
	d="
M539.227783,214.392029 
	C539.409241,219.161346 539.375549,223.700623 539.387939,228.718231 
	C538.851624,230.091782 538.120117,230.119293 537.116211,229.301559 
	C536.995239,224.646378 537.046692,220.255203 537.014893,215.398804 
	C537.422668,214.129745 538.054810,213.706619 539.227783,214.392029 
z"/>
<path fill="#5645B0" opacity="1.000000" stroke="none" 
	d="
M157.875427,278.730743 
	C158.381851,279.117767 158.668488,279.372711 158.708603,279.661865 
	C158.972443,281.563629 159.569794,283.565186 158.079681,285.204468 
	C157.608749,285.722534 156.635605,285.346710 156.521011,284.691864 
	C156.151291,282.579224 154.980850,280.256531 157.875427,278.730743 
z"/>
<path fill="#7063B8" opacity="1.000000" stroke="none" 
	d="
M455.929199,177.388519 
	C456.947205,177.689575 457.218475,178.657867 457.093689,180.144562 
	C456.624023,179.608292 456.241577,178.686462 455.929199,177.388519 
z"/>
<path fill="#7063B8" opacity="1.000000" stroke="none" 
	d="
M461.151550,183.278809 
	C461.575836,183.159973 462.144836,183.309174 462.853760,183.731903 
	C462.427856,183.852570 461.862091,183.699707 461.151550,183.278809 
z"/>
<path fill="#7063B8" opacity="1.000000" stroke="none" 
	d="
M458.734924,182.224213 
	C459.167755,182.125595 459.865906,182.259796 460.775574,182.696442 
	C460.324829,182.818253 459.662506,182.637634 458.734924,182.224213 
z"/>
<path fill="#29B9AE" opacity="1.000000" stroke="none" 
	d="
M358.886139,249.447830 
	C350.544647,254.121292 342.240112,258.430084 333.613342,262.849609 
	C331.902374,262.846893 330.925934,262.130463 330.168335,260.553650 
	C330.021698,259.948425 330.000183,259.700500 330.041565,259.089539 
	C335.402588,250.805450 341.100769,243.188339 347.242218,235.896835 
	C348.632935,234.245651 350.125031,232.754456 351.813171,231.485336 
	C348.162018,234.902100 343.563995,236.751862 339.378418,239.252029 
	C337.527588,240.357559 335.472137,240.964539 333.020050,239.665222 
	C332.585907,239.220551 332.448639,239.007233 332.210999,238.423523 
	C332.134918,235.042633 334.333557,233.822403 336.580566,232.671280 
	C342.738861,229.516525 348.704132,225.983322 355.406219,223.032379 
	C356.241608,222.648483 356.755493,222.566452 357.677368,222.605255 
	C359.897949,222.896454 361.421967,223.897186 363.322815,224.930069 
	C365.873291,227.820312 364.978149,230.797699 364.428040,233.712891 
	C366.170166,226.422577 369.315796,219.702011 372.262512,213.994156 
	C370.536957,216.159698 369.595215,220.732346 364.155029,220.444061 
	C362.165161,218.467773 362.520416,216.501038 363.814545,214.840073 
	C368.269287,209.122467 371.941193,202.734299 378.169556,198.083725 
	C378.777863,197.944977 379.028534,197.929779 379.645020,197.996185 
	C380.719971,198.388916 381.137665,199.012192 381.897827,199.802826 
	C376.159424,214.622070 370.136230,229.212219 363.895874,244.119720 
	C362.832001,245.217529 361.830505,245.380737 360.380493,245.047668 
	C356.007751,241.171143 358.540100,236.523514 358.015198,233.261902 
	C352.668945,239.753555 347.402252,247.525879 340.942780,254.356476 
	C346.376526,251.611694 351.116241,247.211288 358.050171,247.558319 
	C358.646759,248.156189 358.832001,248.599335 358.886139,249.447830 
z"/>
<path fill="#2AB9AE" opacity="1.000000" stroke="none" 
	d="
M326.547729,262.628021 
	C317.893188,258.553680 309.613220,254.381485 301.021790,250.026550 
	C300.347778,249.106506 300.461914,248.418564 301.204102,247.531128 
	C304.360748,246.089264 306.646698,247.748581 308.894958,249.018204 
	C311.772583,250.643219 314.630249,252.298660 317.646973,253.784119 
	C311.752258,244.980331 304.119202,237.510986 298.569031,228.033905 
	C298.291687,227.470001 298.215881,227.223770 298.126068,226.583771 
	C298.918579,223.880020 299.941864,221.699539 302.192657,219.852203 
	C310.054688,217.953400 317.583832,216.957947 325.642212,218.046814 
	C326.688416,218.862747 326.976105,219.634583 327.016724,220.893829 
	C326.149536,223.855774 323.978027,224.145172 321.788116,224.142776 
	C317.997131,224.138626 314.304535,224.806854 310.435760,225.421341 
	C315.870880,229.673676 322.805054,231.252640 327.638306,236.657181 
	C327.889221,237.761215 327.741364,238.466858 327.092773,239.387909 
	C324.541046,241.108505 322.393646,240.211761 320.301422,239.148254 
	C316.776703,237.356567 313.380310,235.333725 310.001343,233.288376 
	C315.962463,239.650070 320.937286,246.788147 326.212402,253.682465 
	C327.611298,255.510757 328.338013,257.723694 328.371399,260.450623 
	C328.074860,261.564758 327.608582,262.137787 326.547729,262.628021 
z"/>
<path fill="#2AB9AE" opacity="1.000000" stroke="none" 
	d="
M296.347168,244.880219 
	C289.819214,229.947983 283.706024,215.195755 277.462341,200.043091 
	C277.447601,198.500412 278.091431,197.751053 279.473724,197.179352 
	C280.106873,197.101501 280.363068,197.114960 280.979095,197.256622 
	C287.318970,202.362396 291.159210,209.163803 296.238434,214.911469 
	C297.318909,216.134125 298.001099,217.680328 297.913269,219.787079 
	C297.655121,220.640442 297.364044,221.047119 296.639038,221.559006 
	C293.419739,222.264938 291.779999,220.413162 290.250671,218.473541 
	C288.134583,215.789764 286.726318,212.647522 284.622772,209.586212 
	C284.446075,209.335266 284.228821,208.976181 284.137146,208.800781 
	C284.045471,208.625381 284.171234,208.930786 284.279297,209.116394 
	C289.395874,216.563782 292.824127,224.559052 295.429413,232.934341 
	C294.920227,230.845978 294.486816,228.729141 295.914124,226.415665 
	C296.783417,225.633102 297.457520,225.538101 298.434204,226.200439 
	C298.686615,226.470093 298.925781,226.833923 299.046021,227.015396 
	C301.693268,232.032043 301.566681,237.172363 300.739746,242.797363 
	C299.714172,244.692825 298.475464,245.367828 296.347168,244.880219 
z"/>
<path fill="#2BB2AA" opacity="1.000000" stroke="none" 
	d="
M273.981628,153.877533 
	C278.742371,143.012695 283.586945,132.542053 288.704468,121.759674 
	C290.071167,121.277710 290.888062,121.749847 291.726288,122.900497 
	C292.092407,124.008217 292.015442,124.751221 291.489197,125.795654 
	C287.304169,131.742935 286.512177,138.773605 283.090515,144.656967 
	C281.051300,148.163300 280.532990,152.667480 275.938782,154.768860 
	C275.000336,154.775894 274.507477,154.592468 273.981628,153.877533 
z"/>
<path fill="#29B4AB" opacity="1.000000" stroke="none" 
	d="
M294.090088,117.161896 
	C304.602356,112.797035 315.154633,108.854263 326.062561,104.845123 
	C327.059875,104.767738 327.477173,105.067520 327.732452,106.100357 
	C327.574310,108.609840 326.165283,109.674614 324.387665,110.356056 
	C316.383331,113.424469 308.346619,116.405899 300.223022,119.145943 
	C298.807129,119.623520 297.346893,119.930519 295.493561,119.117554 
	C294.657532,118.576271 294.329620,118.127045 294.090088,117.161896 
z"/>
<path fill="#2AB7AD" opacity="1.000000" stroke="none" 
	d="
M332.952972,105.018181 
	C343.875732,108.658745 354.456512,112.546364 365.376282,116.607468 
	C365.779297,117.349289 365.666412,117.880020 365.084290,118.667923 
	C363.278870,119.890053 361.687012,120.010216 360.025757,119.430893 
	C351.899994,116.597252 343.895172,113.436340 335.816895,110.474045 
	C334.393921,109.952240 333.137115,109.159325 332.353943,107.290802 
	C332.215393,106.311455 332.338776,105.771370 332.952972,105.018181 
z"/>
<path fill="#29B4AB" opacity="1.000000" stroke="none" 
	d="
M386.351318,159.830017 
	C385.962738,170.729889 385.202576,181.337158 384.428253,192.400085 
	C383.696930,193.647629 382.831421,193.709198 381.534424,193.065598 
	C378.407318,187.952087 380.728821,182.944244 380.834351,178.075745 
	C380.959137,172.320755 381.115570,166.466415 383.066284,160.462646 
	C384.121796,159.415604 385.001068,159.237030 386.351318,159.830017 
z"/>
<path fill="#29B4AB" opacity="1.000000" stroke="none" 
	d="
M275.593567,193.161819 
	C274.489594,182.241074 273.746155,171.624023 273.000458,160.563293 
	C273.472839,159.670853 274.036346,159.463013 275.124878,159.660614 
	C276.782318,160.976807 277.959808,162.150894 278.050476,163.983246 
	C278.477600,172.615921 279.361389,181.217041 279.831635,189.846313 
	C279.877045,190.679520 279.386688,191.438324 278.855255,192.612061 
	C277.806244,193.689972 276.916351,193.782837 275.593567,193.161819 
z"/>
<path fill="#2AB9AE" opacity="1.000000" stroke="none" 
	d="
M377.606018,136.924774 
	C380.611755,142.284576 383.194611,147.585358 385.927002,153.184113 
	C385.941193,154.593628 385.078003,154.785446 383.769226,154.944305 
	C378.314850,150.694199 376.212372,145.060181 375.716492,138.341125 
	C376.213531,137.459763 376.645325,137.099213 377.606018,136.924774 
z"/>
<path fill="#2BB2AA" opacity="1.000000" stroke="none" 
	d="
M377.951111,136.624542 
	C377.727753,137.289398 377.426575,137.595016 376.940643,138.164978 
	C374.116821,138.426804 372.942505,136.526505 372.372375,134.478928 
	C371.566589,131.584793 370.083374,129.087845 368.565521,126.159470 
	C368.387054,125.012993 368.073669,124.284416 368.145935,123.114586 
	C368.606598,121.977966 369.199799,121.521935 370.425720,121.490158 
	C373.164124,126.470963 375.518677,131.368134 377.951111,136.624542 
z"/>
<path fill="#D1E9EA" opacity="1.000000" stroke="none" 
	d="
M359.129120,249.894165 
	C358.690887,249.406784 358.532654,249.001053 358.210327,248.314240 
	C356.634399,245.912094 357.224731,244.478806 360.001099,243.808731 
	C361.312408,244.072144 362.176971,244.169846 363.360168,244.352325 
	C364.459778,246.003830 365.573792,247.524277 364.105011,249.308167 
	C362.726379,250.982590 361.152344,251.006363 359.129120,249.894165 
z"/>
<path fill="#D5EFEE" opacity="1.000000" stroke="none" 
	d="
M274.994080,193.112411 
	C275.825043,192.878326 276.417114,192.898514 277.304779,192.881012 
	C277.856842,192.730759 278.113312,192.618210 278.790680,192.523163 
	C280.708801,193.172195 281.301361,194.335526 281.059967,196.311981 
	C280.755890,196.936050 280.584686,197.159134 280.059875,197.612152 
	C279.064240,198.304642 278.422211,198.767151 277.556030,199.436157 
	C273.657318,198.706650 271.816040,197.017975 274.994080,193.112411 
z"/>
<path fill="#D5EFEE" opacity="1.000000" stroke="none" 
	d="
M293.689392,116.557495 
	C294.330414,117.167572 294.610779,117.595329 295.054932,118.224228 
	C295.855988,118.943520 296.130646,119.639191 296.162842,120.820930 
	C295.864044,121.953857 295.426208,122.597504 294.655029,123.469803 
	C294.104340,123.806252 293.860321,123.898674 293.226440,124.013885 
	C292.312012,123.955101 291.849609,123.740021 291.221130,123.078537 
	C290.458374,122.411552 289.924530,122.056335 289.184021,121.574539 
	C288.153595,117.806206 288.783295,115.411285 293.689392,116.557495 
z"/>
<path fill="#D1E9EA" opacity="1.000000" stroke="none" 
	d="
M295.711853,245.078995 
	C296.797791,244.476273 297.663177,244.252304 298.807404,243.989731 
	C301.782501,243.722824 302.851379,244.949341 301.955261,247.791779 
	C301.331177,248.444550 301.090546,248.895111 300.780121,249.594757 
	C295.856049,251.215637 294.893982,250.407135 295.711853,245.078995 
z"/>
<path fill="#D1E9EA" opacity="1.000000" stroke="none" 
	d="
M275.465973,160.127838 
	C274.604492,160.016754 274.143738,160.023026 273.340576,160.074463 
	C269.825317,157.844284 269.049927,155.637344 273.541382,153.526886 
	C274.359039,153.598160 274.820282,153.712967 275.631256,153.899399 
	C277.978485,153.727768 278.247559,155.169098 278.486450,157.010864 
	C278.387451,157.705750 278.337463,157.981827 278.126831,158.646530 
	C277.459198,159.773071 276.756897,160.172119 275.465973,160.127838 
z"/>
<path fill="#D9F0F0" opacity="1.000000" stroke="none" 
	d="
M333.199738,104.440742 
	C333.162048,105.191864 333.029114,105.612587 332.861267,106.362381 
	C331.474762,110.111450 329.521027,109.850243 327.160278,107.144714 
	C326.961945,106.250854 326.846130,105.817024 326.574219,105.080971 
	C328.781311,100.541122 330.321442,100.387161 333.199738,104.440742 
z"/>
<path fill="#D5EFEE" opacity="1.000000" stroke="none" 
	d="
M370.872070,121.200119 
	C370.310181,121.833664 369.810852,122.093544 369.102478,122.540634 
	C368.684540,123.210251 368.352692,123.584076 367.530975,123.970703 
	C366.900055,124.094337 366.638947,124.099159 365.997070,124.001938 
	C365.145599,123.652168 364.730011,123.332695 364.154114,122.609634 
	C363.516876,121.251816 363.492523,120.233528 364.239685,118.918808 
	C364.785034,118.144638 365.085022,117.676407 365.550140,116.994568 
	C369.948486,114.912575 371.322784,116.732574 370.872070,121.200119 
z"/>
<path fill="#D9F0F0" opacity="1.000000" stroke="none" 
	d="
M326.352600,262.956909 
	C326.628113,261.957764 327.083069,261.189636 327.811279,260.071411 
	C328.227905,259.576324 328.371216,259.431366 328.794189,259.162598 
	C329.482056,258.981384 329.883026,259.010468 330.537720,259.296478 
	C331.712311,260.260406 332.916534,260.831573 333.177673,262.608307 
	C330.608002,267.211761 329.458893,267.250458 326.352600,262.956909 
z"/>
<path fill="#D9F0F0" opacity="1.000000" stroke="none" 
	d="
M381.802551,192.679749 
	C382.742889,192.871094 383.305878,192.905533 384.141479,192.897858 
	C387.097595,195.678345 387.360657,198.015900 382.714142,199.529694 
	C381.758514,199.542953 381.182098,199.473343 380.373230,199.036560 
	C380.140900,198.668182 380.340729,198.261765 380.208008,198.078308 
	C379.848602,197.742050 379.621918,197.589249 379.171326,197.091980 
	C378.471405,195.300903 378.741089,194.043427 380.254181,192.812836 
	C380.883759,192.584549 381.154449,192.553696 381.802551,192.679749 
z"/>
<path fill="#D5EFEE" opacity="1.000000" stroke="none" 
	d="
M383.115784,154.114288 
	C384.159668,153.898727 384.796082,153.750290 385.754517,153.541962 
	C390.100677,154.800751 390.095917,156.980728 387.067932,159.927948 
	C386.171204,160.051956 385.619507,159.981277 384.788818,159.943390 
	C384.250305,159.987778 383.990784,159.999374 383.356384,159.896683 
	C382.270905,159.338318 381.852234,158.689758 381.593506,157.485245 
	C381.419037,155.911270 381.773651,154.928925 383.115784,154.114288 
z"/>
<path fill="#2AB9AE" opacity="1.000000" stroke="none" 
	d="
M380.330017,198.924149 
	C380.652618,198.826920 381.164337,198.985641 382.005432,199.379074 
	C382.334778,199.613770 382.377258,199.865631 382.279938,199.948776 
	C381.628113,199.747986 381.073639,199.464050 380.330017,198.924149 
z"/>
<path fill="#7062B7" opacity="1.000000" stroke="none" 
	d="
M507.747192,164.747223 
	C506.399872,168.864288 505.158447,172.595978 503.527222,177.499298 
	C500.510986,171.862305 500.758850,166.804932 499.507721,162.150848 
	C498.899750,159.889114 499.634827,154.587677 494.851532,159.897156 
	C493.001648,161.950500 489.754059,160.657043 487.141296,160.835236 
	C485.650726,160.936890 484.117462,160.660278 482.655396,160.887894 
	C477.040344,161.762054 473.394043,159.862808 471.949554,154.080444 
	C471.575378,152.582565 470.940552,150.889816 469.116150,149.823151 
	C466.922241,152.966812 467.886139,157.292252 465.339813,160.425629 
	C464.515564,158.190811 466.456390,145.868500 467.679260,144.837814 
	C469.108307,143.633362 469.818176,144.821060 470.345459,145.818420 
	C471.900055,148.758987 473.438446,151.716293 474.792267,154.752167 
	C475.882202,157.196335 477.536926,158.308212 480.232605,158.157242 
	C482.720520,158.017914 485.236755,157.963226 487.715149,158.172028 
	C491.551025,158.495209 494.583649,157.640335 496.225342,153.764618 
	C496.656403,152.746964 497.217346,151.347244 498.556824,151.440598 
	C500.314026,151.563049 500.221344,153.344803 500.468811,154.536194 
	C501.438904,159.206894 502.257446,163.909073 503.996613,168.695007 
	C506.101074,161.743805 508.183075,154.785675 510.327179,147.846725 
	C510.805634,146.298294 510.793945,144.045532 512.540710,143.632370 
	C514.834412,143.089783 515.107727,145.762924 516.271667,147.024643 
	C516.605286,147.386307 516.885986,147.825317 517.088806,148.274933 
	C520.594727,156.046967 525.664001,161.171188 535.104980,159.093994 
	C535.669861,158.969711 536.349243,159.365768 536.985962,160.201569 
	C532.184509,161.109772 526.575256,162.763489 522.725281,160.121994 
	C518.789246,157.421494 516.661926,152.084747 513.105774,146.989212 
	C511.175781,153.372421 509.514435,158.867126 507.747192,164.747223 
z"/>
<path fill="#2C295D" opacity="1.000000" stroke="none" 
	d="
M327.502075,238.056671 
	C319.309326,233.465607 311.433868,229.034027 303.558411,224.602432 
	C303.653442,224.237518 303.748474,223.872589 303.843506,223.507675 
	C310.901703,222.847702 317.959900,222.187714 325.476166,221.565643 
	C327.946167,220.649170 330.083405,220.415070 332.704315,220.500244 
	C339.627167,219.880814 345.973907,221.934082 352.459412,221.570312 
	C353.824799,221.493698 355.100372,221.886841 356.102020,223.547028 
	C349.112854,229.555466 340.566681,232.762863 332.706329,237.854599 
	C330.922333,239.188934 329.385864,239.334549 327.502075,238.056671 
z"/>
<path fill="#2C295C" opacity="1.000000" stroke="none" 
	d="
M379.503662,196.770386 
	C379.951721,197.224731 380.032104,197.406693 380.069275,197.752563 
	C374.276917,204.764969 368.615479,211.740723 363.609314,219.913071 
	C363.409973,220.777405 363.215027,220.954285 362.664337,221.307526 
	C361.245361,221.809204 360.209839,221.701309 358.855591,221.084793 
	C355.623016,216.052551 351.912994,211.861893 348.142365,207.720795 
	C347.145386,206.625900 345.938660,205.679382 345.778748,203.648407 
	C345.968353,202.387070 346.410675,201.697220 347.470581,200.956238 
	C358.242188,198.934174 368.533081,196.383789 379.503662,196.770386 
z"/>
<path fill="#2C295D" opacity="1.000000" stroke="none" 
	d="
M360.436523,243.511963 
	C359.383240,244.893997 358.377014,245.851822 358.134491,247.700684 
	C351.276031,251.339767 344.505890,254.646378 337.194214,257.696411 
	C343.403320,247.013535 351.806915,237.871704 359.678406,227.142288 
	C360.996155,233.018173 360.044250,238.078156 360.436523,243.511963 
z"/>
<path fill="#2C295D" opacity="1.000000" stroke="none" 
	d="
M332.801514,239.667999 
	C339.868805,236.047913 346.500977,232.513824 353.471466,228.888107 
	C354.062531,228.778702 354.315277,228.760910 354.652527,229.113663 
	C347.495148,239.657532 339.792328,249.471405 331.377777,259.050934 
	C328.382019,256.542664 329.842438,253.258835 329.534943,250.298462 
	C329.350555,248.523453 329.490295,246.712799 329.548981,244.467682 
	C329.654236,242.039764 330.689240,240.686249 332.801514,239.667999 
z"/>
<path fill="#2C3262" opacity="1.000000" stroke="none" 
	d="
M363.936920,219.916382 
	C367.864441,218.555359 368.929901,214.493759 371.552002,211.916565 
	C373.297333,210.201157 374.149963,207.665268 377.716522,205.740768 
	C372.685089,217.847366 368.101593,228.876251 363.518066,239.905136 
	C363.187775,239.836472 362.857483,239.767807 362.527191,239.699158 
	C362.527191,235.496613 362.527191,231.294083 362.510071,226.650269 
	C361.898712,224.724594 361.644104,223.238495 362.700531,221.437775 
	C363.098938,220.934799 363.267334,220.740982 363.696838,220.264099 
	C363.957977,219.981033 363.928741,219.940018 363.936920,219.916382 
z"/>
<path fill="#29AEA8" opacity="1.000000" stroke="none" 
	d="
M356.490631,223.985535 
	C348.590515,222.370316 340.731628,222.442123 332.540985,221.367645 
	C330.645996,220.292053 330.574036,218.946823 331.450256,217.099884 
	C331.990509,216.633102 332.255402,216.509003 332.956970,216.357224 
	C341.480286,218.242813 350.063416,217.074692 358.223816,220.624374 
	C358.877777,221.845276 358.833954,222.703735 357.989807,223.787323 
	C357.313293,224.025833 357.013947,224.014618 356.490631,223.985535 
z"/>
<path fill="#D9F0F0" opacity="1.000000" stroke="none" 
	d="
M333.015259,239.224670 
	C333.036987,240.951736 332.790558,242.298187 331.186249,243.305145 
	C330.406921,243.791595 329.893494,244.029129 328.926788,244.246307 
	C326.122986,243.865280 324.858612,242.683044 325.992615,239.866913 
	C326.593262,239.212387 326.834564,238.793640 327.130341,238.136047 
	C328.729156,237.198212 330.278412,236.773056 332.145111,237.960358 
	C332.555664,238.360092 332.674805,238.613724 333.015259,239.224670 
z"/>
<path fill="#29D3BC" opacity="1.000000" stroke="none" 
	d="
M328.542267,243.883728 
	C329.361847,243.547516 329.798248,243.488022 330.563904,243.461853 
	C330.912811,248.382584 330.932526,253.269974 330.993073,258.630432 
	C331.033905,259.103455 330.916046,259.278351 330.857910,259.365967 
	C330.372528,259.474640 329.945251,259.495667 329.196167,259.491669 
	C326.411163,254.468536 325.608582,249.392838 328.542267,243.883728 
z"/>
<path fill="#D9F0F0" opacity="1.000000" stroke="none" 
	d="
M357.818176,224.339569 
	C357.739868,223.303665 357.867004,222.571945 358.041992,221.470963 
	C357.947357,220.864319 357.804871,220.626923 357.874390,220.030731 
	C358.343170,219.563110 358.599945,219.454285 359.222473,219.548370 
	C360.409271,219.844055 361.230286,219.936844 362.361206,220.034760 
	C363.087891,220.165771 363.438019,220.393875 363.830078,221.025574 
	C364.088654,222.855865 364.319733,224.401825 362.765045,225.919830 
	C360.816650,226.219818 359.094604,226.361298 357.818176,224.339569 
z"/>
<path fill="#2C295D" opacity="1.000000" stroke="none" 
	d="
M336.919067,257.867310 
	C336.642059,258.250641 336.084656,258.777893 335.943604,258.683441 
	C335.245667,258.216034 335.940308,257.945038 336.437317,257.533295 
	C336.652679,257.439850 336.830627,257.724609 336.919067,257.867310 
z"/>
<path fill="#2C295D" opacity="1.000000" stroke="none" 
	d="
M354.032379,228.980820 
	C354.340088,228.341248 354.890808,227.797516 354.879150,229.280045 
	C354.576355,229.377869 354.415680,229.271515 354.032379,228.980820 
z"/>
<path fill="#2C2C5E" opacity="1.000000" stroke="none" 
	d="
M301.908813,248.150360 
	C301.290558,246.558182 300.891785,245.184647 299.345612,244.116333 
	C299.108521,238.668869 299.130798,233.386612 299.159668,227.650620 
	C304.391357,231.659302 307.852203,237.600418 312.180908,242.812469 
	C316.287781,247.757462 320.075317,252.967651 323.290710,259.020264 
	C316.275757,255.449081 309.260803,251.877899 301.908813,248.150360 
z"/>
<path fill="#2C2B5E" opacity="1.000000" stroke="none" 
	d="
M328.646973,243.433014 
	C328.906403,248.608078 328.887421,253.609177 328.871338,259.038452 
	C328.722931,259.594360 328.549927,259.675995 328.219910,259.716431 
	C320.368103,249.801865 312.651611,239.882416 304.778503,229.664734 
	C304.644867,229.103699 304.667908,228.840881 305.077515,228.493317 
	C312.186188,232.023392 318.908264,235.638199 325.991150,239.442078 
	C326.653046,241.046692 326.922485,242.479874 328.646973,243.433014 
z"/>
<path fill="#2C295C" opacity="1.000000" stroke="none" 
	d="
M326.116455,219.100449 
	C318.097534,220.011765 310.421021,220.708542 302.281799,221.446808 
	C301.641846,221.305817 301.464600,221.123352 301.172180,220.577240 
	C302.452942,215.622375 306.463379,212.970825 309.213379,209.392639 
	C310.701263,207.456650 312.355774,205.675461 313.710022,203.191925 
	C315.033295,202.423767 316.092346,202.348892 317.569977,202.724075 
	C321.358612,207.181717 324.282837,211.817963 327.009033,217.007233 
	C326.975281,217.949387 326.779510,218.442398 326.116455,219.100449 
z"/>
<path fill="#D9F0F0" opacity="1.000000" stroke="none" 
	d="
M325.849396,219.594238 
	C325.903320,218.894608 326.032593,218.474213 326.241089,217.734787 
	C327.465149,214.404877 329.248016,214.319885 331.637543,216.685486 
	C331.922577,218.261993 332.049316,219.443680 332.132935,220.969208 
	C330.439148,223.086975 328.524231,222.681320 326.253967,221.792725 
	C325.931061,221.026871 325.927887,220.450165 325.849396,219.594238 
z"/>
<path fill="#D9F0F0" opacity="1.000000" stroke="none" 
	d="
M301.177887,220.139954 
	C301.275940,220.703247 301.365356,220.872101 301.636932,221.264618 
	C301.932587,223.568390 302.027832,225.638885 299.002075,226.349518 
	C298.307312,226.356171 297.928009,226.242264 297.350189,226.149323 
	C294.978363,225.470703 294.565857,223.971130 295.528137,221.631714 
	C296.123199,221.036453 296.435913,220.784729 296.920654,220.285538 
	C297.560669,219.321533 298.241638,218.953262 299.468445,218.858521 
	C300.382538,219.049072 300.817383,219.334137 301.177887,220.139954 
z"/>
<path fill="#2C2B5E" opacity="1.000000" stroke="none" 
	d="
M304.838257,229.132156 
	C304.150208,228.768204 303.765594,228.199661 305.243652,228.300598 
	C305.327606,228.571640 305.191132,228.734726 304.838257,229.132156 
z"/>
<path fill="#2C285C" opacity="1.000000" stroke="none" 
	d="
M300.000305,219.623779 
	C299.025177,219.848618 298.382507,219.937958 297.416260,220.032684 
	C291.704041,213.042465 286.315338,206.046875 280.787781,198.749146 
	C280.701172,198.214600 280.753479,197.982208 281.018799,197.463974 
	C284.734406,195.904068 288.045135,197.237976 290.989868,197.774780 
	C289.183441,196.790131 286.689087,197.199554 284.358795,196.678375 
	C282.942749,196.361649 281.087402,196.583832 280.833893,194.601379 
	C280.596344,192.743607 282.298157,192.156006 283.567932,191.440323 
	C285.889679,190.131699 288.294159,188.977448 291.044495,187.768250 
	C293.919220,187.212006 296.639069,187.047150 297.798096,183.646667 
	C305.964813,177.883530 312.492401,170.564438 321.161560,165.474487 
	C321.809570,165.586014 322.060486,165.690033 322.623291,166.067780 
	C324.535980,168.772705 324.237946,171.184021 322.699768,173.973175 
	C319.794861,181.866760 319.840179,189.996918 317.193298,197.940292 
	C316.500793,199.326401 315.630249,199.925354 314.212677,200.372849 
	C311.261444,200.464096 308.662445,200.787781 306.362701,200.002747 
	C308.279877,200.957413 310.761017,199.953171 313.136414,201.338257 
	C313.624390,202.018173 313.741455,202.476929 313.668091,203.311600 
	C310.113190,209.732407 305.284790,214.662094 300.000305,219.623779 
z"/>
<path fill="#2E2D5F" opacity="1.000000" stroke="none" 
	d="
M295.530914,221.089478 
	C295.679474,222.798645 295.394287,224.338791 296.894714,225.877441 
	C297.151672,230.359665 297.151672,234.549057 297.151672,238.738434 
	C296.717804,238.819717 296.283905,238.900986 295.850037,238.982254 
	C291.639526,228.852509 287.428986,218.722763 283.144043,208.231995 
	C283.417999,207.582062 283.812805,207.465958 284.546204,207.709946 
	C288.304291,212.209473 291.777802,216.550110 295.530914,221.089478 
z"/>
<path fill="#413585" opacity="1.000000" stroke="none" 
	d="
M284.712585,207.601624 
	C284.440338,207.878723 284.049927,207.888596 283.364563,207.884689 
	C282.727783,207.126999 282.385956,206.383057 282.003723,205.342575 
	C283.303741,205.276016 283.867859,206.398590 284.712585,207.601624 
z"/>
<path fill="#413585" opacity="1.000000" stroke="none" 
	d="
M281.995483,205.014465 
	C281.902039,204.893631 281.710175,204.782898 281.705688,204.665024 
	C281.688446,204.213150 281.789093,204.254181 281.944153,204.918640 
	C281.963287,205.046036 281.983154,205.021271 281.995483,205.014465 
z"/>
<path fill="#2C285C" opacity="1.000000" stroke="none" 
	d="
M279.945801,197.987228 
	C279.706238,197.842117 279.782471,197.407074 279.886017,197.212006 
	C280.318024,196.727844 280.674255,196.672546 281.269653,197.111740 
	C281.339447,197.519165 281.202362,197.704498 280.857117,198.168427 
	C280.494385,198.342117 280.339905,198.237228 279.945801,197.987228 
z"/>
<path fill="#2C295C" opacity="1.000000" stroke="none" 
	d="
M277.369507,157.778564 
	C276.958801,156.418823 276.599884,155.473541 276.110962,154.249634 
	C280.876831,144.421158 284.372253,134.194214 290.303070,124.749146 
	C292.255188,127.978340 291.820984,131.740234 291.324097,135.224350 
	C290.113495,143.713242 290.693390,152.317978 289.141968,161.209473 
	C288.680481,162.185822 288.255737,162.608307 287.295135,163.052368 
	C283.248840,162.428741 280.186493,160.591812 277.369507,157.778564 
z"/>
<path fill="#29B9AE" opacity="1.000000" stroke="none" 
	d="
M288.360046,161.980850 
	C288.776550,149.592117 289.525360,137.545654 290.444641,125.001801 
	C290.730988,124.079445 290.846863,123.654465 290.977478,122.998123 
	C291.361481,122.708748 291.730743,122.650726 292.369141,122.673607 
	C293.650208,123.463242 294.107208,124.409203 294.193329,125.669373 
	C294.904877,136.079147 293.332123,146.394714 292.911530,156.756592 
	C292.846252,158.365005 292.133636,159.954269 290.836029,161.679977 
	C289.946564,162.381943 289.340179,162.480103 288.360046,161.980850 
z"/>
<path fill="#2C255A" opacity="1.000000" stroke="none" 
	d="
M364.141174,118.468185 
	C364.624359,119.373154 364.763672,120.133438 364.932434,121.185638 
	C362.804260,127.536926 357.929535,131.762192 354.440033,136.921982 
	C349.248779,144.598038 343.143402,151.621750 337.531982,159.448364 
	C336.963806,159.724335 336.715393,159.792511 336.076721,159.859680 
	C333.308533,159.393326 332.446869,157.492035 331.509338,155.214050 
	C331.060852,154.017899 330.913055,152.891983 329.768890,152.832855 
	C328.449402,152.764648 328.511993,153.937012 328.233215,155.177063 
	C327.390320,156.883392 326.572205,158.168457 324.773804,159.038696 
	C324.143127,159.171173 323.885681,159.186218 323.251892,159.130386 
	C318.127472,155.325470 315.463531,149.899399 311.729004,145.342896 
	C306.405640,138.847839 301.512421,132.034393 296.617035,125.219147 
	C295.835114,124.130554 295.002594,123.129189 294.908936,121.361267 
	C294.938904,120.355980 295.016693,119.708923 295.156586,118.743614 
	C305.612000,114.619347 316.005310,110.813324 326.738190,106.845993 
	C328.732910,107.704964 330.411499,108.338707 332.518127,106.843674 
	C343.149994,110.568794 353.473633,114.446152 364.141174,118.468185 
z"/>
<path fill="#2C265B" opacity="1.000000" stroke="none" 
	d="
M382.185059,192.408997 
	C382.000854,192.911926 381.821747,192.987228 381.356995,193.120575 
	C375.717407,193.769562 372.102722,189.752701 367.275238,187.851257 
	C365.982361,186.554825 365.606384,185.273041 365.520325,183.476196 
	C365.543549,177.921371 368.411377,173.565842 369.610840,168.336700 
	C370.281860,166.191483 371.787750,165.043777 372.997375,163.246429 
	C376.746307,162.290817 378.878754,158.260025 383.349823,159.199799 
	C383.863037,159.353622 383.994934,159.475113 384.318359,159.786392 
	C383.736633,170.644577 382.963409,181.312958 382.185059,192.408997 
z"/>
<path fill="#2C265B" opacity="1.000000" stroke="none" 
	d="
M275.096558,160.423904 
	C275.439789,159.707321 275.814301,159.404160 276.408966,159.001892 
	C280.238068,159.082626 282.668549,161.898666 286.207275,163.149750 
	C288.093719,164.259415 288.922607,165.866333 290.174194,167.583038 
	C290.931000,172.877823 293.386658,177.304581 294.300293,182.570953 
	C294.519257,184.373367 294.228333,185.674011 293.143311,187.140823 
	C288.296356,189.211288 284.314484,192.309097 279.060486,193.335815 
	C278.496490,193.206223 278.313934,193.145248 277.865875,192.963776 
	C276.776215,182.174637 275.952026,171.505997 275.096558,160.423904 
z"/>
<path fill="#2C2A5D" opacity="1.000000" stroke="none" 
	d="
M383.422607,153.676086 
	C383.188110,154.941406 382.852936,155.835663 382.390076,157.064926 
	C380.418640,160.594940 376.868805,161.270950 373.589600,163.032852 
	C372.560394,162.984406 372.022644,162.745926 371.264160,162.005280 
	C369.124298,149.363098 367.896362,137.056686 369.122620,124.222183 
	C371.690399,128.501755 373.996674,133.183487 376.529419,138.147263 
	C378.944580,143.387878 381.133240,148.346466 383.422607,153.676086 
z"/>
<path fill="#2AB7AD" opacity="1.000000" stroke="none" 
	d="
M369.317383,123.698898 
	C370.174408,136.174789 370.964691,148.529556 371.763245,161.293976 
	C371.126038,162.645157 370.204224,162.747940 368.756653,162.324493 
	C365.484985,158.268127 367.168152,153.718552 366.342773,149.560638 
	C364.979187,142.691437 366.049866,135.654114 365.156555,128.723053 
	C364.940125,127.043610 365.370758,125.077568 366.758270,123.122765 
	C367.463959,122.706100 367.872406,122.665497 368.587158,122.676376 
	C369.001282,123.015907 369.120361,123.299225 369.317383,123.698898 
z"/>
<path fill="#2AB7AD" opacity="1.000000" stroke="none" 
	d="
M278.846191,193.560547 
	C282.814697,191.196335 286.950348,189.125443 291.427612,186.978638 
	C292.202698,187.127502 292.482727,187.475677 292.584076,188.298294 
	C289.032043,190.448578 285.505219,192.247849 281.230469,194.428680 
	C287.750763,196.851227 294.201782,196.101624 299.891998,198.343002 
	C299.813293,198.885269 299.734619,199.427551 299.655914,199.969818 
	C293.871674,199.109833 288.087402,198.249832 281.889832,197.361847 
	C281.150360,197.241959 280.824188,197.150085 280.243805,197.037567 
	C279.664154,195.962601 279.338745,194.908234 278.846191,193.560547 
z"/>
<path fill="#2C265B" opacity="1.000000" stroke="none" 
	d="
M290.177277,161.999664 
	C290.895142,148.911530 291.725525,136.264847 292.597107,123.186333 
	C292.638306,122.754501 293.088654,122.587120 293.324219,122.539963 
	C298.280853,125.365547 300.322968,130.471786 303.571808,134.565170 
	C309.876678,142.508972 315.955750,150.627899 321.960938,159.240128 
	C321.993591,160.187531 321.840393,160.706787 321.280701,161.503555 
	C318.016266,163.057266 314.943268,163.748947 311.259491,163.515015 
	C304.961578,164.704590 299.042664,164.652710 292.671356,164.317413 
	C291.313873,163.924286 290.684967,163.309418 290.177277,161.999664 
z"/>
<path fill="#2AB7AD" opacity="1.000000" stroke="none" 
	d="
M321.923035,159.988129 
	C312.376068,147.790802 303.143097,135.489868 293.734955,122.840874 
	C293.848145,122.081985 294.136536,121.671165 294.643005,121.131691 
	C304.097107,133.257019 313.333069,145.510986 322.821350,158.008209 
	C323.188812,158.997665 322.820953,159.496429 321.923035,159.988129 
z"/>
<path fill="#29AEA8" opacity="1.000000" stroke="none" 
	d="
M286.063477,164.199738 
	C282.909760,162.728378 280.035767,161.063217 276.895416,159.150406 
	C276.725189,158.638458 276.821320,158.374146 277.117584,157.736969 
	C280.184479,158.954697 283.051239,160.545288 286.196106,162.409958 
	C286.563019,163.137817 286.525726,163.579086 286.063477,164.199738 
z"/>
<path fill="#2C265B" opacity="1.000000" stroke="none" 
	d="
M366.861572,122.639252 
	C367.837128,135.424377 368.618774,148.102051 369.426453,161.223175 
	C369.399414,162.921356 368.936005,163.971939 367.529083,164.949860 
	C363.933014,166.102921 360.904419,164.360550 357.322144,164.526428 
	C351.003021,164.027786 345.118164,163.485947 338.921936,162.201340 
	C338.318695,161.915222 338.102875,161.759293 337.674438,161.274170 
	C337.113281,159.657196 337.797852,158.703735 338.510590,157.773315 
	C346.991608,146.702301 355.212952,135.435974 363.663666,124.342239 
	C364.176636,123.668831 364.798645,123.136513 365.899353,122.620399 
	C366.230194,122.460358 366.667694,122.531807 366.861572,122.639252 
z"/>
<path fill="#2AB7AD" opacity="1.000000" stroke="none" 
	d="
M366.062897,122.245399 
	C356.996490,134.868088 347.762787,147.275803 338.289246,159.921875 
	C337.532684,160.255798 337.105377,160.093872 336.675659,159.350342 
	C345.842438,146.599121 355.088379,134.208435 364.648132,121.647644 
	C365.273132,121.661842 365.584381,121.846138 366.062897,122.245399 
z"/>
<path fill="#29B4AB" opacity="1.000000" stroke="none" 
	d="
M367.784851,187.152374 
	C372.198608,188.894302 376.316559,190.872787 380.752930,193.014923 
	C380.401184,194.140442 379.793213,195.125732 379.845825,196.716614 
	C369.428040,198.583481 359.033966,200.102539 348.224792,201.685181 
	C347.681702,201.545120 347.553619,201.341446 347.378113,200.780762 
	C347.848175,197.821930 349.846100,197.235306 352.072754,196.754395 
	C358.218109,195.427185 364.543243,195.127945 370.753326,193.498474 
	C369.702423,191.930817 367.494873,191.549271 367.072662,189.165085 
	C367.063507,188.289734 367.218658,187.820404 367.784851,187.152374 
z"/>
<path fill="#37B4AE" opacity="1.000000" stroke="none" 
	d="
M373.148590,162.913361 
	C375.947205,160.923370 378.772949,159.273911 381.930542,157.512207 
	C382.655182,157.851852 383.047943,158.303757 383.585938,158.993896 
	C380.705658,160.831680 377.680176,162.431213 374.318115,164.173233 
	C373.599762,164.047623 373.336731,163.689468 373.148590,162.913361 
z"/>
<path fill="#2AB7AD" opacity="1.000000" stroke="none" 
	d="
M359.499969,219.404190 
	C359.402557,219.955551 359.216827,220.159805 358.678650,220.581482 
	C351.316162,218.388733 347.930237,212.496078 344.613373,206.145233 
	C344.649628,205.501633 344.690277,205.245682 344.880554,204.630081 
	C345.199524,204.073364 345.368835,203.876297 345.884216,203.499878 
	C350.624023,208.566055 355.017853,213.811569 359.499969,219.404190 
z"/>
<path fill="#D5EFEE" opacity="1.000000" stroke="none" 
	d="
M346.303955,203.031372 
	C346.230225,203.320526 345.998871,203.438004 345.999390,203.567734 
	C345.784821,204.183807 345.559479,204.665329 345.045837,205.436615 
	C344.034119,206.171921 343.240143,206.313705 341.996643,206.080551 
	C340.398926,205.135605 339.514679,204.050858 338.743530,202.353195 
	C338.343842,200.412796 338.545288,199.005707 339.933685,197.504913 
	C340.778168,196.915833 341.327484,196.724564 342.344513,196.604095 
	C345.449524,196.447647 347.211212,197.500000 347.677368,200.737457 
	C347.753265,201.156921 347.718781,201.458893 347.764282,201.603851 
	C347.332397,202.079941 346.855042,202.411087 346.303955,203.031372 
z"/>
<path fill="#29B9AE" opacity="1.000000" stroke="none" 
	d="
M364.075928,220.992340 
	C363.631561,221.064758 363.324432,220.802612 362.844238,220.290176 
	C362.880402,219.916428 363.089691,219.792953 363.628479,219.825256 
	C364.043030,220.206604 364.128113,220.432190 364.075928,220.992340 
z"/>
<path fill="#2C285C" opacity="1.000000" stroke="none" 
	d="
M341.773041,204.759811 
	C342.769287,204.650665 343.408203,204.626678 344.366821,204.593170 
	C344.999207,204.608994 345.311890,204.634369 345.697876,205.124619 
	C349.789307,210.456573 353.807465,215.323669 358.075928,220.494827 
	C358.326202,220.798889 358.222443,220.961105 358.156128,221.031403 
	C350.380096,221.225891 342.778412,219.960114 335.129395,219.305908 
	C334.150696,219.222198 333.148041,219.058731 332.913818,217.386322 
	C334.380096,211.973618 337.146637,207.881332 341.773041,204.759811 
z"/>
<path fill="#37B4AE" opacity="1.000000" stroke="none" 
	d="
M341.894165,204.430252 
	C339.212830,208.617020 336.295349,212.559402 333.137146,216.734634 
	C332.713104,216.987320 332.529755,217.007156 332.071106,217.053650 
	C330.161438,216.504288 328.527374,215.960312 326.616333,217.275040 
	C323.496490,213.359848 320.672607,209.303925 317.697906,204.955200 
	C317.502869,203.405457 317.754700,202.255997 319.120605,201.124237 
	C321.936066,199.652237 324.172546,200.315414 326.654388,201.899780 
	C327.479614,202.918518 327.533081,203.699936 327.132080,204.841339 
	C326.488678,205.874435 325.777496,206.272110 324.739807,207.000015 
	C324.887848,209.189896 325.627930,210.094849 327.661530,208.484863 
	C328.420105,208.184952 328.880493,208.125671 329.691589,208.225586 
	C331.137146,208.557144 332.099609,210.757339 333.316956,208.896393 
	C334.542664,207.022552 331.782654,207.264786 331.269897,205.779358 
	C330.848694,204.639511 330.887360,203.844131 331.377716,202.675400 
	C333.856049,200.565933 336.217926,199.403564 339.458923,201.169540 
	C340.451050,202.331192 341.054535,203.258530 341.894165,204.430252 
z"/>
<path fill="#2AB7AD" opacity="1.000000" stroke="none" 
	d="
M299.892151,219.938477 
	C304.070618,214.439926 308.473358,209.120560 313.134094,203.515884 
	C313.730560,203.381119 314.069031,203.531708 314.684845,204.163803 
	C310.589233,209.788406 306.216278,214.931442 301.514954,220.304443 
	C300.829865,220.395477 300.473145,220.256577 299.892151,219.938477 
z"/>
<path fill="#D9F0F0" opacity="1.000000" stroke="none" 
	d="
M315.211670,204.597900 
	C314.700348,204.411163 314.438507,204.176956 313.784363,203.586670 
	C313.334351,202.945190 313.245544,202.669846 312.997040,202.225708 
	C312.401581,201.387009 312.267456,200.675705 312.801270,199.629211 
	C313.881836,198.993332 314.698181,198.630249 315.801025,198.092072 
	C316.494171,197.573685 316.959290,197.353561 317.875183,197.280838 
	C319.942352,197.988419 320.800537,199.140442 320.128174,201.294342 
	C319.273773,202.422943 318.697906,203.271759 317.834564,204.391479 
	C316.851807,204.625092 316.156494,204.587769 315.211670,204.597900 
z"/>
<path fill="#2ABFB1" opacity="1.000000" stroke="none" 
	d="
M321.286560,174.352905 
	C321.482758,171.594254 321.852203,169.195587 322.453888,166.065613 
	C322.924835,165.199677 323.163574,165.065063 323.806641,164.840363 
	C325.076508,164.706085 325.862579,164.939194 326.878784,165.713745 
	C330.691833,174.471390 329.132751,183.315125 329.415741,192.038742 
	C329.374359,187.092056 329.596039,182.134552 329.778961,177.174393 
	C329.883514,174.339432 330.171661,171.510941 333.184387,169.500458 
	C333.879761,169.362885 334.169922,169.367157 334.866821,169.538162 
	C335.473969,169.921036 335.674408,170.137161 336.055054,170.758331 
	C335.645416,179.231247 336.057495,187.380783 334.225464,195.348053 
	C333.669373,197.766495 333.519592,200.312164 331.602844,202.711945 
	C330.696747,203.756470 329.880859,203.941589 328.573547,203.680649 
	C323.442444,199.466751 324.721130,193.626083 323.779053,188.458344 
	C323.080933,184.629013 324.361969,180.577896 322.333801,176.518539 
	C321.864014,175.706055 321.650085,175.214615 321.286560,174.352905 
z"/>
<path fill="#2AB9AE" opacity="1.000000" stroke="none" 
	d="
M321.198975,165.765320 
	C313.749664,172.249237 306.389435,178.354782 298.694275,184.685776 
	C297.887177,184.665634 297.499207,184.324310 297.063110,183.519073 
	C296.776825,181.743195 297.206604,180.388931 298.222595,179.564835 
	C304.573212,174.413544 310.301300,168.450958 317.604706,164.532120 
	C318.182892,164.221893 318.833099,164.075562 319.878876,164.182159 
	C320.729065,164.526016 321.073517,164.895935 321.198975,165.765320 
z"/>
<path fill="#29B4AB" opacity="1.000000" stroke="none" 
	d="
M320.950226,174.341431 
	C321.567444,174.011368 322.021576,174.029816 322.816040,174.067886 
	C323.763245,182.479843 324.131317,190.828781 318.370148,198.279266 
	C317.531219,198.336395 317.107819,198.253677 316.385986,198.043976 
	C317.654083,190.174637 319.220612,182.432281 320.950226,174.341431 
z"/>
<path fill="#D1E9EA" opacity="1.000000" stroke="none" 
	d="
M296.981598,183.001770 
	C297.359375,183.717133 297.624176,184.071320 298.124146,184.668365 
	C298.476135,188.692551 297.007690,190.412735 292.828186,188.803741 
	C292.359833,188.270523 292.160797,187.891724 291.865509,187.207825 
	C292.135040,185.901901 292.500885,184.901093 293.018951,183.612091 
	C293.331329,182.825684 293.634399,182.439529 294.439148,182.045593 
	C295.593323,181.860535 296.285767,182.091766 296.981598,183.001770 
z"/>
<path fill="#2A989B" opacity="1.000000" stroke="none" 
	d="
M312.636230,199.363892 
	C313.032593,200.028961 312.999695,200.701523 312.917664,201.710510 
	C309.293854,201.554550 305.719238,201.062210 302.144623,200.569855 
	C302.146851,200.117371 302.149109,199.664886 302.151367,199.212402 
	C305.371155,197.531860 308.872955,199.552490 312.636230,199.363892 
z"/>
<path fill="#2A989B" opacity="1.000000" stroke="none" 
	d="
M321.378296,166.115051 
	C320.820953,165.828888 320.532043,165.514069 319.970337,165.027405 
	C316.978516,164.531998 314.400208,167.091446 311.293762,164.966034 
	C310.640076,164.204422 310.497986,163.674133 310.757019,162.720703 
	C314.037506,162.023911 317.115540,161.697083 320.607330,161.347382 
	C322.098785,161.879776 322.792267,162.731918 323.048035,164.272278 
	C323.001587,164.831619 322.942841,165.050491 322.740845,165.577606 
	C322.597595,165.885880 322.396881,165.988358 322.285309,165.978943 
	C321.998047,166.008484 321.822388,166.047455 321.378296,166.115051 
z"/>
<path fill="#D9F0F0" opacity="1.000000" stroke="none" 
	d="
M285.848022,164.720093 
	C285.939056,164.014221 286.094330,163.634903 286.361938,162.969818 
	C286.829865,162.467026 287.185425,162.250015 287.784363,161.835785 
	C288.481720,161.645172 288.935760,161.651764 289.727264,161.608276 
	C290.646057,162.037262 291.227356,162.516312 292.038086,163.294724 
	C292.901184,164.135956 293.201355,164.838425 293.224915,166.052338 
	C292.964050,167.242554 292.507446,167.877075 291.498688,168.551086 
	C290.613464,168.839600 290.093658,168.811386 289.235016,168.451721 
	C287.316528,167.727844 285.999603,166.955887 285.848022,164.720093 
z"/>
<path fill="#D1E9EA" opacity="1.000000" stroke="none" 
	d="
M322.184601,165.184631 
	C321.987000,163.756805 319.862610,163.343109 320.963776,161.569427 
	C321.217804,161.079849 321.382477,160.815292 321.562134,160.311295 
	C322.053833,159.676895 322.498627,159.262054 323.008514,158.549347 
	C323.073608,158.251465 323.499329,158.167038 323.712219,158.209015 
	C325.228638,158.330322 326.611084,158.018524 328.037109,159.288239 
	C329.873566,162.159714 329.824921,164.308136 326.212891,165.491486 
	C325.242859,165.499908 324.682892,165.566986 323.858582,165.735199 
	C323.146454,165.838211 322.738922,165.711014 322.184601,165.184631 
z"/>
<path fill="#D5EFEE" opacity="1.000000" stroke="none" 
	d="
M327.375763,155.076538 
	C326.322052,152.180756 325.893799,149.561661 329.426483,149.090439 
	C332.477448,148.683456 333.333191,150.778488 332.662354,153.906876 
	C332.324524,154.785522 332.083405,155.241699 331.446533,155.881775 
	C330.633820,156.290787 330.123962,156.379913 329.209564,156.319366 
	C328.312531,156.107391 327.876068,155.833572 327.375763,155.076538 
z"/>
<path fill="#D5EFEE" opacity="1.000000" stroke="none" 
	d="
M336.212067,158.981537 
	C336.898865,159.276245 337.201263,159.562683 337.776489,160.004700 
	C338.074951,160.425217 338.100525,160.690170 338.221497,161.342865 
	C340.090088,162.295380 340.097748,163.567780 339.382019,165.356796 
	C338.180817,166.426559 337.057007,166.434357 335.514801,166.458710 
	C334.806854,166.434204 334.522675,166.415070 333.814148,166.320251 
	C330.446533,164.752945 329.946136,162.514862 331.676086,159.368866 
	C332.650391,158.443405 333.420807,158.218552 334.686920,158.709030 
	C335.317749,158.919815 335.572693,158.946548 336.212067,158.981537 
z"/>
<path fill="#37B4AE" opacity="1.000000" stroke="none" 
	d="
M326.967224,154.938446 
	C327.674988,154.891800 328.110748,155.074402 328.855469,155.431183 
	C330.308136,157.576141 329.497528,158.869690 327.332916,159.843338 
	C326.057068,159.490799 325.151428,159.117264 324.085449,158.497375 
	C325.273407,157.604980 326.003784,156.403809 326.967224,154.938446 
z"/>
<path fill="#37B4AE" opacity="1.000000" stroke="none" 
	d="
M334.933228,158.661194 
	C334.530182,159.093552 333.997528,159.294022 333.185425,159.590851 
	C330.927704,159.418091 330.208435,158.175827 330.457886,155.942596 
	C331.080170,155.235474 331.540283,154.895889 332.244629,154.422562 
	C333.260498,155.668976 334.032074,157.049133 334.933228,158.661194 
z"/>
<path fill="#D1E9EA" opacity="1.000000" stroke="none" 
	d="
M368.001282,186.595154 
	C367.854523,187.318069 367.628387,187.720337 367.269165,188.443222 
	C366.673798,190.770615 365.229706,191.387131 363.439606,191.043961 
	C360.827972,190.543304 359.648132,188.703262 359.519806,185.692719 
	C359.837494,184.375992 360.311859,183.612976 361.087097,182.527496 
	C362.145477,181.681503 362.979797,181.474655 364.305878,181.615540 
	C365.275177,181.863464 365.747711,182.157349 366.358856,182.937088 
	C367.024780,184.289291 367.473358,185.281906 368.001282,186.595154 
z"/>
<path fill="#D9F0F0" opacity="1.000000" stroke="none" 
	d="
M372.880676,162.457840 
	C373.307983,162.962753 373.494507,163.352676 373.831268,164.029144 
	C373.848663,165.980911 373.173981,167.284637 371.251221,168.107666 
	C370.269318,168.794083 369.509827,169.094101 368.222778,168.929230 
	C367.025146,168.423553 366.495667,167.792160 366.094971,166.566010 
	C366.043091,165.584656 366.210693,165.061966 366.792023,164.268494 
	C367.672302,163.322205 368.283569,162.693237 369.173706,161.865448 
	C370.031982,161.705399 370.611420,161.744171 371.481201,161.743286 
	C372.060944,161.916702 372.350403,162.129776 372.880676,162.457840 
z"/>
<path fill="#29B9AE" opacity="1.000000" stroke="none" 
	d="
M368.053223,167.992386 
	C369.101379,167.954376 369.718201,168.043594 370.642426,168.195679 
	C369.576660,173.009018 368.203461,177.759506 366.703247,182.903336 
	C366.136414,183.220474 365.696655,183.144272 364.942322,182.951019 
	C361.927917,177.176743 364.510437,172.594376 368.053223,167.992386 
z"/>
<path fill="#29B9AE" opacity="1.000000" stroke="none" 
	d="
M288.915344,168.645950 
	C289.332764,168.173935 289.777313,168.083725 290.559753,167.953552 
	C294.983032,170.559875 297.069000,176.764694 295.416504,182.531525 
	C294.697021,182.969696 294.264404,183.084763 293.501465,183.261841 
	C291.761597,178.558502 290.351990,173.793137 288.915344,168.645950 
z"/>
<path fill="#2DA7A4" opacity="1.000000" stroke="none" 
	d="
M292.653076,166.353455 
	C292.351074,165.339737 292.305206,164.750366 292.263428,163.877533 
	C298.217743,163.161713 304.167938,162.729340 310.538818,162.323853 
	C310.937012,162.644897 310.927246,162.939484 310.940796,163.455536 
	C311.635223,165.095963 310.754120,166.243378 309.695618,166.381378 
	C304.126740,167.107300 298.565552,169.693420 292.653076,166.353455 
z"/>
<path fill="#29AEA8" opacity="1.000000" stroke="none" 
	d="
M338.240326,164.998230 
	C338.135437,163.788879 338.248596,162.983994 338.339325,161.954849 
	C344.339722,161.220200 350.215851,162.695557 356.600403,163.130066 
	C357.401489,163.733887 357.524811,164.311539 357.165558,165.340240 
	C353.796570,168.074402 350.319305,167.353851 346.974762,166.595352 
	C344.686737,166.076416 342.471863,165.660217 339.698547,165.963348 
	C338.985260,165.715363 338.721832,165.559021 338.240326,164.998230 
z"/>
<path fill="#2ABFB1" opacity="1.000000" stroke="none" 
	d="
M357.241974,165.332794 
	C357.018219,164.521118 357.020966,164.146606 357.024841,163.491211 
	C360.096771,163.405304 363.167572,163.600281 366.649658,163.873230 
	C367.085388,164.365448 367.109772,164.779709 367.090607,165.502182 
	C363.838593,169.486969 360.652405,167.896912 357.241974,165.332794 
z"/>
<path fill="#2C275B" opacity="1.000000" stroke="none" 
	d="
M361.121338,184.669037 
	C361.237061,188.792084 362.810242,190.405380 366.874481,188.864243 
	C370.620544,190.489868 374.104950,192.215881 377.589355,193.941910 
	C377.519836,194.308472 377.450317,194.675034 377.380798,195.041595 
	C369.158051,196.367401 360.937042,197.703964 352.711151,199.009811 
	C351.099182,199.265686 349.367737,199.076614 347.930359,200.798737 
	C346.511688,200.163940 345.270111,199.170975 343.769836,198.018311 
	C340.119690,195.914215 341.458130,192.249954 340.674988,189.440063 
	C338.918915,183.139618 338.436737,176.521912 336.281555,169.863831 
	C335.967804,168.952637 335.928650,168.416809 336.159302,167.500763 
	C337.627747,165.587402 339.476013,165.559189 340.729767,166.638565 
	C347.523895,172.487656 355.427094,177.073532 361.121338,184.669037 
z"/>
<path fill="#37B4AE" opacity="1.000000" stroke="none" 
	d="
M345.831421,205.116852 
	C345.568481,205.445740 345.365845,205.302002 344.924866,204.870972 
	C344.964844,204.368851 345.243164,204.154053 345.760681,203.818359 
	C345.963837,204.013046 345.927765,204.328629 345.831421,205.116852 
z"/>
<path fill="#2C295D" opacity="1.000000" stroke="none" 
	d="
M331.004944,203.134842 
	C332.192719,192.498062 333.593597,182.202240 335.013062,171.494049 
	C336.548706,170.720596 337.257111,171.722092 337.466187,172.877365 
	C338.957794,181.120178 341.568329,189.168182 341.744446,198.055237 
	C341.134644,199.284317 340.602539,200.085709 339.959015,201.145477 
	C337.482391,202.127197 335.117249,202.850540 332.355042,203.682281 
	C331.711365,203.685730 331.464722,203.580765 331.004944,203.134842 
z"/>
<path fill="#29AEA8" opacity="1.000000" stroke="none" 
	d="
M341.984802,198.413269 
	C339.262573,189.587830 338.465027,180.331512 335.320099,171.309875 
	C334.999603,170.893219 334.967621,170.704803 334.907654,170.231064 
	C335.202454,169.324722 335.735535,169.006134 336.729675,168.902847 
	C340.605286,177.955139 341.272278,187.642273 343.461182,197.427338 
	C343.108337,198.020264 342.705597,198.181931 341.984802,198.413269 
z"/>
<path fill="#2C2B5E" opacity="1.000000" stroke="none" 
	d="
M318.132568,198.619232 
	C319.627411,190.567383 321.300201,182.715668 323.064667,174.475739 
	C324.973206,174.951233 324.923920,176.641785 325.108734,178.294067 
	C325.988007,186.155228 326.921539,194.010315 327.910278,202.251572 
	C327.850677,202.892654 327.716583,203.149734 327.167450,203.536804 
	C324.714294,203.048187 322.676208,202.429596 320.243896,201.692566 
	C319.336609,200.655884 318.823578,199.737640 318.132568,198.619232 
z"/>
<path fill="#2C3262" opacity="1.000000" stroke="none" 
	d="
M332.153320,206.043243 
	C334.479126,205.401382 336.425354,204.747253 339.266113,203.792465 
	C336.996643,208.685211 334.167480,211.755905 331.579773,215.113632 
	C329.380646,213.527847 330.501617,211.561539 330.191162,209.529083 
	C329.963165,207.713791 330.439728,206.654633 332.153320,206.043243 
z"/>
<path fill="#2C3262" opacity="1.000000" stroke="none" 
	d="
M328.128418,208.758636 
	C328.110382,210.822342 328.110382,212.544235 328.110382,214.266144 
	C327.732849,214.378708 327.355316,214.491257 326.977783,214.603821 
	C324.986084,211.682159 322.994415,208.760513 320.902771,205.509628 
	C320.789673,204.962906 320.776489,204.745407 321.090118,204.521942 
	C322.616058,204.819901 323.815186,205.123840 325.375305,205.517487 
	C327.390564,205.813782 328.081970,206.846405 328.128418,208.758636 
z"/>
<path fill="#D9F0F0" opacity="1.000000" stroke="none" 
	d="
M328.457642,209.071136 
	C327.065582,208.361710 326.013977,207.628128 325.821014,205.894562 
	C326.008240,205.123154 326.280212,204.639084 326.652283,203.910904 
	C326.953827,203.490402 327.155243,203.314011 327.670715,202.886597 
	C328.686768,202.677307 329.388733,202.719055 330.441284,202.777328 
	C330.978577,202.967712 331.165344,203.141571 331.655060,203.553070 
	C332.077362,204.362717 332.196686,204.934738 332.424438,205.781128 
	C331.947205,206.972946 331.361542,207.890381 330.486755,208.970947 
	C329.733398,209.103333 329.269165,209.072586 328.457642,209.071136 
z"/>
<path fill="#2C3262" opacity="1.000000" stroke="none" 
	d="
M320.959991,205.017670 
	C320.758484,204.932541 320.705475,204.685257 320.688873,204.435547 
	C320.687714,204.418365 320.958649,204.383057 321.259979,204.436066 
	C321.416901,204.515945 321.117157,204.854919 320.959991,205.017670 
z"/>
<path fill="#2E2D5F" opacity="1.000000" stroke="none" 
	d="
M330.377197,155.549500 
	C331.237671,156.764572 331.855316,157.954102 332.689453,159.415405 
	C331.853302,161.563965 331.631104,163.362839 333.668213,165.196732 
	C335.395630,166.695007 335.379608,168.102005 333.851715,169.741150 
	C332.163330,178.061508 330.927795,186.243393 329.692291,194.425293 
	C329.476410,194.449997 329.260559,194.474701 329.044708,194.499405 
	C328.001251,185.129852 326.957794,175.760300 325.858612,165.911804 
	C327.367401,164.090836 328.096130,162.519562 327.060577,160.177734 
	C327.632446,158.632736 328.302216,157.401138 329.068237,155.887451 
	C329.481873,155.508102 329.805176,155.480957 330.377197,155.549500 
z"/>
<path fill="#29CCB9" opacity="1.000000" stroke="none" 
	d="
M333.769104,169.895264 
	C333.539001,168.638290 333.679108,167.396957 333.876892,165.787140 
	C334.199005,165.467682 334.463531,165.516693 335.100830,165.720184 
	C335.942902,165.916885 336.358429,166.088959 336.873322,166.701019 
	C337.017792,167.435928 337.009094,167.860657 337.027100,168.603302 
	C336.531952,169.221436 336.010101,169.521683 335.183990,169.883820 
	C334.632904,169.934113 334.386139,169.922501 333.769104,169.895264 
z"/>
<path fill="#2AB9AE" opacity="1.000000" stroke="none" 
	d="
M322.128052,165.169373 
	C322.388824,165.063690 322.780121,165.212891 323.382812,165.599213 
	C323.426544,165.848526 323.258820,165.860733 322.844360,165.879410 
	C322.484589,165.732010 322.371552,165.578140 322.128052,165.169373 
z"/>
<path fill="#2C295C" opacity="1.000000" stroke="none" 
	d="
M292.230469,166.195892 
	C298.359833,165.321365 304.402191,165.519440 310.621399,163.920471 
	C313.591797,164.912125 316.446960,163.558609 319.410675,164.605042 
	C312.371979,170.852524 305.046417,176.849503 297.407715,183.104721 
	C296.601440,183.253555 296.108307,183.144150 295.372406,182.944687 
	C293.778381,178.125656 292.427124,173.396683 290.986755,168.290649 
	C291.286407,167.429947 291.675171,166.946304 292.230469,166.195892 
z"/>
<path fill="#29B9AE" opacity="1.000000" stroke="none" 
	d="
M337.390961,167.001953 
	C336.597473,166.721252 336.168518,166.431320 335.606567,166.008026 
	C336.145020,165.516739 336.816376,165.158798 337.755005,164.697327 
	C338.358704,164.660843 338.695129,164.727921 339.536987,164.891556 
	C343.107574,165.061249 345.606201,166.322052 347.978607,168.255234 
	C352.043396,171.567535 356.094971,174.891495 360.073639,178.306946 
	C361.461456,179.498322 362.945160,180.570724 362.608673,183.079224 
	C362.238953,183.874542 361.945709,184.302155 361.440765,184.882187 
	C354.956360,179.876663 348.694946,174.704788 342.402008,169.571640 
	C341.019623,168.444061 339.835602,166.890961 337.390961,167.001953 
z"/>
<path fill="#2C295D" opacity="1.000000" stroke="none" 
	d="
M362.793274,183.373718 
	C355.227905,177.404007 347.923615,171.361069 340.330872,165.153137 
	C343.557159,162.743759 347.211182,164.786957 350.795074,164.669144 
	C352.563416,164.611023 354.342255,164.871964 356.565918,164.942078 
	C360.080109,165.195282 363.144775,165.494934 366.628235,165.802490 
	C367.470062,166.289520 367.893097,166.768646 368.400391,167.556458 
	C367.248535,172.594269 366.012512,177.323380 364.702148,182.443237 
	C364.103333,182.989502 363.578827,183.145004 362.793274,183.373718 
z"/>
</svg>