<svg version="1.1" id="Layer_1" xmlns="http://www.w3.org/2000/svg" xmlns:xlink="http://www.w3.org/1999/xlink" x="0px" y="0px"
	 width="100%" viewBox="0 0 574 247" enable-background="new 0 0 574 247" xml:space="preserve">
<path fill="#FF924D" opacity="1.000000" stroke="none" 
	d="
M163.938675,155.907990 
	C163.851761,146.290619 163.764862,136.673279 163.795258,126.130722 
	C163.912582,119.755165 163.912582,114.304817 163.912582,108.854462 
	C163.496048,108.837738 163.079529,108.821007 162.662994,108.804276 
	C158.414429,122.726326 154.099411,136.628708 149.969208,150.585800 
	C149.062256,153.650620 147.972748,155.387421 144.263138,155.177505 
	C137.959305,154.820786 131.615829,154.934662 125.298836,155.145157 
	C122.483658,155.238937 121.090271,154.327988 120.311943,151.616638 
	C117.520714,141.893173 114.594795,132.207626 111.637711,122.532845 
	C110.223259,117.905136 108.624573,113.333740 107.109329,108.736839 
	C106.820915,108.799614 106.532494,108.862396 106.244080,108.925179 
	C106.244080,114.653770 106.244080,120.382370 106.244080,126.110962 
	C106.260750,135.444077 106.277428,144.777206 105.761642,154.596466 
	C95.128197,155.079391 85.027222,155.076157 74.862213,154.897217 
	C74.528618,154.821304 74.259056,154.921112 73.811996,155.007996 
	C73.634483,154.995071 73.278519,154.995316 73.278519,154.995316 
	C73.232384,153.615021 73.186249,152.234741 73.568481,150.313232 
	C74.321823,148.059769 74.925369,146.348267 74.929764,144.635208 
	C74.991089,120.753059 75.047768,96.870186 74.891701,72.988892 
	C74.866463,69.128334 75.865456,67.798233 79.899994,67.876137 
	C93.510735,68.138969 107.128876,68.018883 120.744186,68.045227 
	C125.322067,82.980232 129.899948,97.915253 134.477829,112.850273 
	C134.819748,112.841606 135.161652,112.832939 135.503555,112.824272 
	C139.683243,99.127625 143.862930,85.430984 148.536865,71.268387 
	C150.886978,69.864952 152.726532,68.155487 154.601349,68.115845 
	C166.371643,67.867050 178.154404,68.179176 189.922913,67.891228 
	C194.257950,67.785164 195.242798,69.366646 195.128143,73.334885 
	C195.044998,76.211899 196.062790,79.120728 196.589661,82.015366 
	C196.667709,106.030342 196.745758,130.045319 196.584381,154.513611 
	C196.344955,154.966919 196.013397,154.981552 195.912460,154.818420 
	C195.562775,154.811737 195.314041,154.968170 194.749420,155.366898 
	C184.268585,155.708786 174.103638,155.808380 163.938675,155.907990 
z"/>
<path fill="#FF924E" opacity="1.000000" stroke="none" 
	d="
M336.885895,153.966156 
	C336.850861,125.626617 336.815796,97.287079 337.123627,68.336288 
	C337.684570,67.384308 337.902679,67.043579 338.120728,66.702843 
	C355.813080,65.343056 373.529114,63.465607 391.175903,66.932953 
	C413.749481,71.368332 426.420959,89.824615 425.073517,109.047348 
	C424.818970,112.678780 425.100830,116.347801 425.017700,120.842628 
	C422.891510,131.009003 418.664154,139.037918 411.390442,145.391113 
	C401.575470,153.963959 389.573486,156.474823 377.223755,156.798294 
	C363.818817,157.149384 350.381500,156.262756 336.958282,155.915863 
	C336.958282,155.915863 336.859131,155.464096 337.085815,155.137970 
	C337.170319,154.529938 337.028107,154.248047 336.885895,153.966156 
M389.388428,116.634285 
	C389.550934,113.201775 390.228485,109.699387 389.774261,106.350533 
	C388.647034,98.040314 383.356995,93.539589 375.650177,92.955200 
	C371.072174,92.608063 369.381561,94.091957 369.889587,98.702660 
	C370.267914,102.136345 370.015411,105.639534 369.933075,110.025757 
	C369.933075,116.128601 369.933075,122.231445 369.933075,128.168732 
	C379.120209,130.902206 389.555786,125.101685 389.388428,116.634285 
z"/>
<path fill="#FF924E" opacity="1.000000" stroke="none" 
	d="
M438.382050,148.779419 
	C436.401062,146.644928 434.420074,144.510437 432.303802,142.230148 
	C435.569061,136.746292 438.827118,131.274475 442.424866,125.277084 
	C444.232452,124.989891 445.774475,125.018005 447.154968,125.504410 
	C452.119049,127.253487 456.920044,129.610489 462.000702,130.827560 
	C464.908356,131.524094 469.629761,132.464767 470.525024,128.180145 
	C471.391846,124.031570 466.643555,123.980606 463.964691,122.912018 
	C453.333191,118.671173 443.020935,114.121506 437.880981,102.799324 
	C434.149292,83.716896 442.750519,70.085762 461.919312,65.899818 
	C478.912933,62.188869 494.180756,65.908051 507.225769,78.345970 
	C505.066010,81.863953 503.079803,85.099205 500.743286,88.876335 
	C498.649872,91.962677 496.906769,94.507141 495.876343,96.011292 
	C489.678680,94.144684 484.433197,92.310318 479.045959,91.114304 
	C477.630371,90.800018 475.775818,92.462715 474.122864,93.217529 
	C475.292816,94.766708 476.135254,96.928856 477.689301,97.759277 
	C484.541229,101.420715 491.598206,104.698349 498.580933,108.114998 
	C506.648651,115.904434 509.730774,125.155754 506.526001,136.831238 
	C504.667999,140.005981 503.395386,142.785172 501.463501,144.985443 
	C490.125519,157.898224 475.143921,158.731857 459.840057,156.183914 
	C452.480469,154.958618 445.522095,151.323349 438.382050,148.779419 
z"/>
<path fill="#FF924E" opacity="1.000000" stroke="none" 
	d="
M214.079086,66.774261 
	C234.719635,66.716431 255.360184,66.658607 276.565552,66.941650 
	C277.395996,67.514526 277.661560,67.746536 277.927185,67.978546 
	C277.998505,76.358994 278.069824,84.739441 277.603210,93.587570 
	C266.485901,94.055237 255.906509,94.055237 245.484161,94.055237 
	C245.484161,98.188179 245.484161,101.405907 245.484161,105.229889 
	C254.517242,105.229889 263.082581,105.229889 271.692780,105.229889 
	C271.870117,107.325325 271.995911,108.811462 272.121674,110.297592 
	C272.045258,116.540756 271.968842,122.783920 271.362823,129.502716 
	C263.571594,129.989700 256.308136,130.099167 249.049271,129.964050 
	C246.156952,129.910202 244.780975,130.687485 244.973267,133.843903 
	C245.223770,137.955505 245.133255,142.087875 245.189484,146.211319 
	C245.135620,149.139664 245.081741,152.068024 244.491943,155.453156 
	C233.371048,155.892807 222.786072,155.875671 212.201096,155.858521 
	C212.211716,126.353584 212.222336,96.848648 212.685349,67.275772 
	C213.451523,67.063301 213.765305,66.918777 214.079086,66.774261 
z"/>
<path fill="#FF934F" opacity="1.000000" stroke="none" 
	d="
M321.021851,155.008591 
	C321.021851,155.008591 321.122650,155.458069 320.603394,155.693695 
	C309.518768,155.894562 298.953400,155.859787 288.388000,155.825012 
	C288.290100,137.355103 288.171600,118.885292 288.102051,100.415291 
	C288.060120,89.283745 288.094330,78.151909 288.094330,66.643028 
	C299.210327,66.643028 309.917084,66.643028 321.271698,66.643028 
	C321.271698,95.559647 321.271698,124.301849 321.006592,153.590820 
	C320.660980,154.242722 320.491699,154.410889 320.514313,154.442749 
	C320.660126,154.647980 320.847870,154.823395 321.021851,155.008591 
z"/>
<path fill="#FFDE5B" opacity="1.000000" stroke="none" 
	d="
M336.897949,156.388901 
	C350.381500,156.262756 363.818817,157.149384 377.223755,156.798294 
	C389.573486,156.474823 401.575470,153.963959 411.390442,145.391113 
	C418.664154,139.037918 422.891510,131.009003 424.993927,121.306511 
	C428.299347,142.598907 418.228149,165.670578 391.798248,170.669250 
	C379.726044,172.952438 367.048676,172.189667 354.638184,172.462234 
	C348.883881,172.588608 343.111420,171.887634 336.837616,171.532928 
	C336.837616,166.408539 336.837616,161.635254 336.897949,156.388901 
z"/>
<path fill="#FFDD5A" opacity="1.000000" stroke="none" 
	d="
M438.126404,149.052673 
	C445.522095,151.323349 452.480469,154.958618 459.840057,156.183914 
	C475.143921,158.731857 490.125519,157.898224 501.463501,144.985443 
	C503.395386,142.785172 504.667999,140.005981 506.459045,137.251678 
	C510.115936,148.450394 506.212128,157.550919 497.531616,164.968964 
	C481.477051,178.688553 445.662598,174.905701 432.234009,157.897217 
	C434.069000,155.106888 435.969879,152.216415 438.126404,149.052673 
z"/>
<path fill="#FFDC5F" opacity="1.000000" stroke="none" 
	d="
M106.600815,126.120453 
	C106.244080,120.382370 106.244080,114.653770 106.244080,108.925179 
	C106.532494,108.862396 106.820915,108.799614 107.109329,108.736839 
	C108.624573,113.333740 110.223259,117.905136 111.637711,122.532845 
	C114.594795,132.207626 117.520714,141.893173 120.311943,151.616638 
	C121.090271,154.327988 122.483658,155.238937 125.298836,155.145157 
	C131.615829,154.934662 137.959305,154.820786 144.263138,155.177505 
	C147.972748,155.387421 149.062256,153.650620 149.969208,150.585800 
	C154.099411,136.628708 158.414429,122.726326 162.662994,108.804276 
	C163.079529,108.821007 163.496048,108.837738 163.912582,108.854462 
	C163.912582,114.304817 163.912582,119.755165 163.817612,125.671463 
	C163.035172,127.051369 162.034012,127.865860 161.707855,128.894394 
	C157.640854,141.720001 153.592865,154.553024 149.733521,167.442093 
	C148.778549,170.631500 147.354874,172.046310 143.811874,171.850510 
	C138.007172,171.529724 132.159088,171.530472 126.354012,171.847748 
	C122.645332,172.050446 121.077522,170.645523 120.070755,167.191193 
	C116.167374,153.798370 111.999527,140.482529 107.896553,127.148369 
	C107.774055,126.750275 107.278946,126.466843 106.600815,126.120453 
z"/>
<path fill="#FFDF5E" opacity="1.000000" stroke="none" 
	d="
M73.208405,155.456787 
	C73.278519,154.995316 73.634483,154.995071 74.045677,155.031570 
	C74.456871,155.068069 74.926247,155.072937 74.926247,155.072937 
	C85.027222,155.076157 95.128197,155.079391 105.711952,155.066254 
	C106.344872,159.670151 106.650475,164.294861 106.519302,168.907135 
	C106.491722,169.876633 104.874756,171.604370 103.963722,171.622086 
	C93.882866,171.817993 83.796776,171.745331 73.138298,171.745331 
	C73.138298,166.102280 73.138298,161.010284 73.208405,155.456787 
z"/>
<path fill="#FFDF5E" opacity="1.000000" stroke="none" 
	d="
M163.737473,156.267792 
	C174.103638,155.808380 184.268585,155.708786 194.988098,155.343597 
	C195.542664,155.078018 196.013397,154.981552 196.013397,154.981552 
	C196.013397,154.981552 196.344955,154.966919 196.510223,154.975235 
	C196.675491,160.266068 196.675491,165.548584 196.675491,171.763092 
	C193.393188,171.763092 190.178101,171.763199 186.963028,171.763077 
	C180.340378,171.762817 173.716293,171.682297 167.095764,171.800385 
	C164.327454,171.849762 163.156448,170.811859 163.282959,168.028107 
	C163.455490,164.231934 163.459824,160.428116 163.737473,156.267792 
z"/>
<path fill="#FFDF5E" opacity="1.000000" stroke="none" 
	d="
M288.292542,156.299255 
	C298.953400,155.859787 309.518768,155.894562 320.555603,155.919006 
	C321.225250,160.336960 321.585083,164.768951 321.483887,169.190384 
	C321.463837,170.064499 319.684021,171.620132 318.693054,171.638519 
	C308.782806,171.822433 298.867798,171.750229 288.197052,171.750229 
	C288.197052,166.536819 288.197052,161.655151 288.292542,156.299255 
z"/>
<path fill="#FFDF5D" opacity="1.000000" stroke="none" 
	d="
M212.124725,156.333511 
	C222.786072,155.875671 233.371048,155.892807 244.414856,155.887253 
	C244.873672,160.957092 244.873672,166.049622 244.873672,171.434601 
	C233.845734,171.434601 223.170319,171.434601 212.048370,171.434601 
	C212.048370,166.347519 212.048370,161.578003 212.124725,156.333511 
z"/>
<path fill="#FFDD5A" opacity="1.000000" stroke="none" 
	d="
M245.639954,146.154358 
	C245.133255,142.087875 245.223770,137.955505 244.973267,133.843903 
	C244.780975,130.687485 246.156952,129.910202 249.049271,129.964050 
	C256.308136,130.099167 263.571594,129.989700 271.280884,129.960464 
	C271.728577,135.032410 271.728577,140.122208 271.728577,146.097397 
	C263.082001,146.097397 254.586212,146.097397 245.639954,146.154358 
z"/>
<path fill="#FFD958" opacity="1.000000" stroke="none" 
	d="
M272.562317,110.277084 
	C271.995911,108.811462 271.870117,107.325325 271.692780,105.229889 
	C263.082581,105.229889 254.517242,105.229889 245.484161,105.229889 
	C245.484161,101.405907 245.484161,98.188179 245.484161,94.055237 
	C255.906509,94.055237 266.485901,94.055237 277.533966,94.055618 
	C278.002625,99.181259 278.002625,104.306519 278.002625,109.869591 
	C276.168762,110.011536 274.585876,110.134056 272.562317,110.277084 
z"/>
<path fill="#FFDC59" opacity="1.000000" stroke="none" 
	d="
M437.630768,103.147049 
	C443.020935,114.121506 453.333191,118.671173 463.964691,122.912018 
	C466.643555,123.980606 471.391846,124.031570 470.525024,128.180145 
	C469.629761,132.464767 464.908356,131.524094 462.000702,130.827560 
	C456.920044,129.610489 452.119049,127.253487 447.154968,125.504410 
	C445.774475,125.018005 444.232452,124.989891 442.459595,124.919067 
	C436.221191,118.849380 436.214386,111.301750 437.630768,103.147049 
z"/>
<path fill="#FFDC5A" opacity="1.000000" stroke="none" 
	d="
M498.788574,107.811478 
	C491.598206,104.698349 484.541229,101.420715 477.689301,97.759277 
	C476.135254,96.928856 475.292816,94.766708 474.122864,93.217529 
	C475.775818,92.462715 477.630371,90.800018 479.045959,91.114304 
	C484.433197,92.310318 489.678680,94.144684 495.876343,96.011292 
	C496.906769,94.507141 498.649872,91.962677 500.653748,89.215446 
	C502.923065,90.704544 504.931610,92.396400 507.294891,94.387062 
	C504.425781,98.923340 501.710999,103.215652 498.788574,107.811478 
z"/>
<path fill="#FFA166" opacity="1.000000" stroke="none" 
	d="
M120.701218,67.659866 
	C107.128876,68.018883 93.510735,68.138969 79.899994,67.876137 
	C75.865456,67.798233 74.866463,69.128334 74.891701,72.988892 
	C75.047768,96.870186 74.991089,120.753059 74.929764,144.635208 
	C74.925369,146.348267 74.321823,148.059769 73.629974,149.902451 
	C73.263084,122.333809 73.263084,94.634720 73.263084,66.423592 
	C75.044037,66.331169 76.641388,66.178871 78.238968,66.176376 
	C90.860085,66.156654 103.481499,66.128105 116.102051,66.214478 
	C117.623131,66.224884 119.139626,66.904869 120.701218,67.659866 
z"/>
<path fill="#FF9859" opacity="1.000000" stroke="none" 
	d="
M196.688049,81.557304 
	C196.062790,79.120728 195.044998,76.211899 195.128143,73.334885 
	C195.242798,69.366646 194.257950,67.785164 189.922913,67.891228 
	C178.154404,68.179176 166.371643,67.867050 154.601349,68.115845 
	C152.726532,68.155487 150.886978,69.864952 148.689224,70.909271 
	C148.436661,67.306435 150.140488,66.043823 153.996216,66.121964 
	C166.770691,66.380852 179.554779,66.312500 192.332642,66.158119 
	C195.729675,66.117073 197.195023,67.070053 196.909393,70.649216 
	C196.632904,74.113762 196.809097,77.614441 196.688049,81.557304 
z"/>
<path fill="#FF8B41" opacity="1.000000" stroke="none" 
	d="
M337.772583,66.744003 
	C337.902679,67.043579 337.684570,67.384308 337.200562,67.874084 
	C337.097931,67.610481 337.261200,67.197823 337.772583,66.744003 
z"/>
<path fill="#FF8940" opacity="1.000000" stroke="none" 
	d="
M277.921051,67.666595 
	C277.661560,67.746536 277.395996,67.514526 277.021667,67.034332 
	C277.246948,66.975647 277.580933,67.165146 277.921051,67.666595 
z"/>
<path fill="#FF8B41" opacity="1.000000" stroke="none" 
	d="
M321.107239,154.753021 
	C320.847870,154.823395 320.660126,154.647980 320.514313,154.442749 
	C320.491699,154.410889 320.660980,154.242722 320.923828,154.051575 
	C321.134949,154.142853 321.163818,154.320160 321.107239,154.753021 
z"/>
<path fill="#FF8B41" opacity="1.000000" stroke="none" 
	d="
M336.841217,154.232758 
	C337.028107,154.248047 337.170319,154.529938 337.138062,154.912689 
	C336.907898,154.842133 336.852234,154.670746 336.841217,154.232758 
z"/>
<path fill="#FF8940" opacity="1.000000" stroke="none" 
	d="
M213.789337,66.724518 
	C213.765305,66.918777 213.451523,67.063301 213.031860,67.005798 
	C213.117172,66.760773 213.308395,66.717773 213.789337,66.724518 
z"/>
<path fill="#FFA166" opacity="1.000000" stroke="none" 
	d="
M74.862213,154.897217 
	C74.926247,155.072937 74.456871,155.068069 74.223190,155.044495 
	C74.259056,154.921112 74.528618,154.821304 74.862213,154.897217 
z"/>
<path fill="#FF9859" opacity="1.000000" stroke="none" 
	d="
M195.912460,154.818420 
	C196.013397,154.981552 195.542664,155.078018 195.303986,155.101318 
	C195.314041,154.968170 195.562775,154.811737 195.912460,154.818420 
z"/>
<path fill="#FFDD59" opacity="1.000000" stroke="none" 
	d="
M370.043884,109.111763 
	C370.015411,105.639534 370.267914,102.136345 369.889587,98.702660 
	C369.381561,94.091957 371.072174,92.608063 375.650177,92.955200 
	C383.356995,93.539589 388.647034,98.040314 389.774261,106.350533 
	C390.228485,109.699387 389.550934,113.201775 388.819702,116.678757 
	C384.263702,109.206360 377.343750,108.704674 370.043884,109.111763 
z"/>
<path fill="#FFFDFA" opacity="1.000000" stroke="none" 
	d="
M369.988464,109.568756 
	C377.343750,108.704674 384.263702,109.206360 388.491608,116.961182 
	C389.555786,125.101685 379.120209,130.902206 369.933075,128.168732 
	C369.933075,122.231445 369.933075,116.128601 369.988464,109.568756 
z"/>
</svg>